<?xml version="1.0" encoding="UTF-8" standalone="no"?>
<!-- Created with Inkscape (http://www.inkscape.org/) -->

<svg
   width="150.0011mm"
   height="150.0011mm"
   viewBox="0 0 150.0011 150.0011"
   version="1.1"
   id="svg1"
   inkscape:version="1.4 (86a8ad7, 2024-10-11)"
   sodipodi:docname="3_shannon_diversity.svg"
   xmlns:inkscape="http://www.inkscape.org/namespaces/inkscape"
   xmlns:sodipodi="http://sodipodi.sourceforge.net/DTD/sodipodi-0.dtd"
   xmlns="http://www.w3.org/2000/svg"
   xmlns:svg="http://www.w3.org/2000/svg">
  <sodipodi:namedview
     id="namedview1"
     pagecolor="#ffffff"
     bordercolor="#000000"
     borderopacity="0.25"
     inkscape:showpageshadow="2"
     inkscape:pageopacity="0.0"
     inkscape:pagecheckerboard="0"
     inkscape:deskcolor="#d1d1d1"
     inkscape:document-units="mm"
     inkscape:zoom="1.0289352"
     inkscape:cx="597.70529"
     inkscape:cy="530.15973"
     inkscape:window-width="2560"
     inkscape:window-height="1351"
     inkscape:window-x="-9"
     inkscape:window-y="-9"
     inkscape:window-maximized="1"
     inkscape:current-layer="layer1" />
  <defs
     id="defs1">
    <clipPath
       clipPathUnits="userSpaceOnUse"
       id="clipPath3">
      <path
         d="M 0,0 H 425.2 V 425.2 H 0 Z"
         id="path3" />
    </clipPath>
    <clipPath
       clipPathUnits="userSpaceOnUse"
       id="clipPath5">
      <path
         d="M 28.47,31.91 H 348.99 V 402.04 H 28.47 Z"
         id="path5" />
    </clipPath>
    <clipPath
       clipPathUnits="userSpaceOnUse"
       id="clipPath7">
      <path
         d="M 28.47,31.91 H 348.99 V 402.04 H 28.47 Z"
         id="path7" />
    </clipPath>
    <clipPath
       clipPathUnits="userSpaceOnUse"
       id="clipPath9">
      <path
         d="M 28.47,31.91 H 348.99 V 402.04 H 28.47 Z"
         id="path9" />
    </clipPath>
    <clipPath
       clipPathUnits="userSpaceOnUse"
       id="clipPath11">
      <path
         d="M 28.47,31.91 H 348.99 V 402.04 H 28.47 Z"
         id="path11" />
    </clipPath>
    <clipPath
       clipPathUnits="userSpaceOnUse"
       id="clipPath13">
      <path
         d="M 28.47,31.91 H 348.99 V 402.04 H 28.47 Z"
         id="path13" />
    </clipPath>
    <clipPath
       clipPathUnits="userSpaceOnUse"
       id="clipPath15">
      <path
         d="M 28.47,31.91 H 348.99 V 402.04 H 28.47 Z"
         id="path15" />
    </clipPath>
    <clipPath
       clipPathUnits="userSpaceOnUse"
       id="clipPath17">
      <path
         d="M 28.47,31.91 H 348.99 V 402.04 H 28.47 Z"
         id="path17" />
    </clipPath>
    <clipPath
       clipPathUnits="userSpaceOnUse"
       id="clipPath19">
      <path
         d="M 28.47,31.91 H 348.99 V 402.04 H 28.47 Z"
         id="path19" />
    </clipPath>
    <clipPath
       clipPathUnits="userSpaceOnUse"
       id="clipPath21">
      <path
         d="M 28.47,31.91 H 348.99 V 402.04 H 28.47 Z"
         id="path21" />
    </clipPath>
    <clipPath
       clipPathUnits="userSpaceOnUse"
       id="clipPath23">
      <path
         d="M 28.47,31.91 H 348.99 V 402.04 H 28.47 Z"
         id="path23" />
    </clipPath>
    <clipPath
       clipPathUnits="userSpaceOnUse"
       id="clipPath25">
      <path
         d="M 28.47,31.91 H 348.99 V 402.04 H 28.47 Z"
         id="path25" />
    </clipPath>
    <clipPath
       clipPathUnits="userSpaceOnUse"
       id="clipPath27">
      <path
         d="M 28.47,31.91 H 348.99 V 402.04 H 28.47 Z"
         id="path27" />
    </clipPath>
    <clipPath
       clipPathUnits="userSpaceOnUse"
       id="clipPath29">
      <path
         d="M 28.47,31.91 H 348.99 V 402.04 H 28.47 Z"
         id="path29" />
    </clipPath>
    <clipPath
       clipPathUnits="userSpaceOnUse"
       id="clipPath31">
      <path
         d="M 28.47,31.91 H 348.99 V 402.04 H 28.47 Z"
         id="path31" />
    </clipPath>
    <clipPath
       clipPathUnits="userSpaceOnUse"
       id="clipPath33">
      <path
         d="M 28.47,31.91 H 348.99 V 402.04 H 28.47 Z"
         id="path33" />
    </clipPath>
    <clipPath
       clipPathUnits="userSpaceOnUse"
       id="clipPath35">
      <path
         d="M 28.47,31.91 H 348.99 V 402.04 H 28.47 Z"
         id="path35" />
    </clipPath>
    <clipPath
       clipPathUnits="userSpaceOnUse"
       id="clipPath37">
      <path
         d="M 28.47,31.91 H 348.99 V 402.04 H 28.47 Z"
         id="path37" />
    </clipPath>
    <clipPath
       clipPathUnits="userSpaceOnUse"
       id="clipPath39">
      <path
         d="M 28.47,31.91 H 348.99 V 402.04 H 28.47 Z"
         id="path39" />
    </clipPath>
    <clipPath
       clipPathUnits="userSpaceOnUse"
       id="clipPath41">
      <path
         d="M 28.47,31.91 H 348.99 V 402.04 H 28.47 Z"
         id="path41" />
    </clipPath>
    <clipPath
       clipPathUnits="userSpaceOnUse"
       id="clipPath43">
      <path
         d="M 28.47,31.91 H 348.99 V 402.04 H 28.47 Z"
         id="path43" />
    </clipPath>
    <clipPath
       clipPathUnits="userSpaceOnUse"
       id="clipPath45">
      <path
         d="M 28.47,31.91 H 348.99 V 402.04 H 28.47 Z"
         id="path45" />
    </clipPath>
    <clipPath
       clipPathUnits="userSpaceOnUse"
       id="clipPath47">
      <path
         d="M 28.47,31.91 H 348.99 V 402.04 H 28.47 Z"
         id="path47" />
    </clipPath>
    <clipPath
       clipPathUnits="userSpaceOnUse"
       id="clipPath49">
      <path
         d="M 28.47,31.91 H 348.99 V 402.04 H 28.47 Z"
         id="path49" />
    </clipPath>
    <clipPath
       clipPathUnits="userSpaceOnUse"
       id="clipPath51">
      <path
         d="M 28.47,31.91 H 348.99 V 402.04 H 28.47 Z"
         id="path51" />
    </clipPath>
    <clipPath
       clipPathUnits="userSpaceOnUse"
       id="clipPath53">
      <path
         d="M 28.47,31.91 H 348.99 V 402.04 H 28.47 Z"
         id="path53" />
    </clipPath>
    <clipPath
       clipPathUnits="userSpaceOnUse"
       id="clipPath55">
      <path
         d="M 28.47,31.91 H 348.99 V 402.04 H 28.47 Z"
         id="path55" />
    </clipPath>
    <clipPath
       clipPathUnits="userSpaceOnUse"
       id="clipPath57">
      <path
         d="M 28.47,31.91 H 348.99 V 402.04 H 28.47 Z"
         id="path57" />
    </clipPath>
    <clipPath
       clipPathUnits="userSpaceOnUse"
       id="clipPath59">
      <path
         d="M 28.47,31.91 H 348.99 V 402.04 H 28.47 Z"
         id="path59" />
    </clipPath>
    <clipPath
       clipPathUnits="userSpaceOnUse"
       id="clipPath61">
      <path
         d="M 28.47,31.91 H 348.99 V 402.04 H 28.47 Z"
         id="path61" />
    </clipPath>
    <clipPath
       clipPathUnits="userSpaceOnUse"
       id="clipPath63">
      <path
         d="M 28.47,31.91 H 348.99 V 402.04 H 28.47 Z"
         id="path63" />
    </clipPath>
    <clipPath
       clipPathUnits="userSpaceOnUse"
       id="clipPath65">
      <path
         d="M 28.47,31.91 H 348.99 V 402.04 H 28.47 Z"
         id="path65" />
    </clipPath>
    <clipPath
       clipPathUnits="userSpaceOnUse"
       id="clipPath67">
      <path
         d="M 28.47,31.91 H 348.99 V 402.04 H 28.47 Z"
         id="path67" />
    </clipPath>
    <clipPath
       clipPathUnits="userSpaceOnUse"
       id="clipPath69">
      <path
         d="M 28.47,31.91 H 348.99 V 402.04 H 28.47 Z"
         id="path69" />
    </clipPath>
    <clipPath
       clipPathUnits="userSpaceOnUse"
       id="clipPath71">
      <path
         d="M 28.47,31.91 H 348.99 V 402.04 H 28.47 Z"
         id="path71" />
    </clipPath>
    <clipPath
       clipPathUnits="userSpaceOnUse"
       id="clipPath73">
      <path
         d="M 28.47,31.91 H 348.99 V 402.04 H 28.47 Z"
         id="path73" />
    </clipPath>
    <clipPath
       clipPathUnits="userSpaceOnUse"
       id="clipPath75">
      <path
         d="M 28.47,31.91 H 348.99 V 402.04 H 28.47 Z"
         id="path75" />
    </clipPath>
    <clipPath
       clipPathUnits="userSpaceOnUse"
       id="clipPath77">
      <path
         d="M 28.47,31.91 H 348.99 V 402.04 H 28.47 Z"
         id="path77" />
    </clipPath>
    <clipPath
       clipPathUnits="userSpaceOnUse"
       id="clipPath79">
      <path
         d="M 28.47,31.91 H 348.99 V 402.04 H 28.47 Z"
         id="path79" />
    </clipPath>
    <clipPath
       clipPathUnits="userSpaceOnUse"
       id="clipPath81">
      <path
         d="M 28.47,31.91 H 348.99 V 402.04 H 28.47 Z"
         id="path81" />
    </clipPath>
  </defs>
  <g
     inkscape:label="Layer 1"
     inkscape:groupmode="layer"
     id="layer1"
     transform="translate(53.18125,-8.2020864)">
    <path
       id="path1"
       d="M -53.18125,158.20319 H 96.819854 V 8.2020864 H -53.18125 Z"
       style="fill:#ffffff;fill-opacity:1;fill-rule:nonzero;stroke:none;stroke-width:0.352778" />
    <path
       id="path2"
       d="M 0,0 H 425.2 V 425.2 H 0 Z"
       style="fill:#ffffff;fill-opacity:1;fill-rule:nonzero;stroke:#ffffff;stroke-width:1.07;stroke-linecap:round;stroke-linejoin:round;stroke-miterlimit:10;stroke-dasharray:none;stroke-opacity:1"
       transform="matrix(0.35277776,0,0,-0.35277776,-53.18125,158.20319)"
       clip-path="url(#clipPath3)" />
    <path
       id="path4"
       d="M 28.47,31.91 H 348.99 V 402.04 H 28.47 Z"
       style="fill:#ffffff;fill-opacity:1;fill-rule:nonzero;stroke:none"
       transform="matrix(0.35277776,0,0,-0.35277776,-53.18125,158.20319)"
       clip-path="url(#clipPath5)" />
    <path
       id="path6"
       d="M 28.47,122.71 H 348.99"
       style="fill:none;stroke:#ebebeb;stroke-width:0.53;stroke-linecap:butt;stroke-linejoin:round;stroke-miterlimit:10;stroke-dasharray:none;stroke-opacity:1"
       transform="matrix(0.35277776,0,0,-0.35277776,-53.18125,158.20319)"
       clip-path="url(#clipPath7)" />
    <path
       id="path8"
       d="M 28.47,221.38 H 348.99"
       style="fill:none;stroke:#ebebeb;stroke-width:0.53;stroke-linecap:butt;stroke-linejoin:round;stroke-miterlimit:10;stroke-dasharray:none;stroke-opacity:1"
       transform="matrix(0.35277776,0,0,-0.35277776,-53.18125,158.20319)"
       clip-path="url(#clipPath9)" />
    <path
       id="path10"
       d="M 28.47,320.04 H 348.99"
       style="fill:none;stroke:#ebebeb;stroke-width:0.53;stroke-linecap:butt;stroke-linejoin:round;stroke-miterlimit:10;stroke-dasharray:none;stroke-opacity:1"
       transform="matrix(0.35277776,0,0,-0.35277776,-53.18125,158.20319)"
       clip-path="url(#clipPath11)" />
    <path
       id="path12"
       d="M 28.47,73.38 H 348.99"
       style="fill:none;stroke:#ebebeb;stroke-width:1.07;stroke-linecap:butt;stroke-linejoin:round;stroke-miterlimit:10;stroke-dasharray:none;stroke-opacity:1"
       transform="matrix(0.35277776,0,0,-0.35277776,-53.18125,158.20319)"
       clip-path="url(#clipPath13)" />
    <path
       id="path14"
       d="M 28.47,172.04 H 348.99"
       style="fill:none;stroke:#ebebeb;stroke-width:1.07;stroke-linecap:butt;stroke-linejoin:round;stroke-miterlimit:10;stroke-dasharray:none;stroke-opacity:1"
       transform="matrix(0.35277776,0,0,-0.35277776,-53.18125,158.20319)"
       clip-path="url(#clipPath15)" />
    <path
       id="path16"
       d="M 28.47,270.71 H 348.99"
       style="fill:none;stroke:#ebebeb;stroke-width:1.07;stroke-linecap:butt;stroke-linejoin:round;stroke-miterlimit:10;stroke-dasharray:none;stroke-opacity:1"
       transform="matrix(0.35277776,0,0,-0.35277776,-53.18125,158.20319)"
       clip-path="url(#clipPath17)" />
    <path
       id="path18"
       d="M 28.47,369.37 H 348.99"
       style="fill:none;stroke:#ebebeb;stroke-width:1.07;stroke-linecap:butt;stroke-linejoin:round;stroke-miterlimit:10;stroke-dasharray:none;stroke-opacity:1"
       transform="matrix(0.35277776,0,0,-0.35277776,-53.18125,158.20319)"
       clip-path="url(#clipPath19)" />
    <path
       id="path20"
       d="M 59.49,31.91 V 402.04"
       style="fill:none;stroke:#ebebeb;stroke-width:1.07;stroke-linecap:butt;stroke-linejoin:round;stroke-miterlimit:10;stroke-dasharray:none;stroke-opacity:1"
       transform="matrix(0.35277776,0,0,-0.35277776,-53.18125,158.20319)"
       clip-path="url(#clipPath21)" />
    <path
       id="path22"
       d="M 111.19,31.91 V 402.04"
       style="fill:none;stroke:#ebebeb;stroke-width:1.07;stroke-linecap:butt;stroke-linejoin:round;stroke-miterlimit:10;stroke-dasharray:none;stroke-opacity:1"
       transform="matrix(0.35277776,0,0,-0.35277776,-53.18125,158.20319)"
       clip-path="url(#clipPath23)" />
    <path
       id="path24"
       d="M 162.88,31.91 V 402.04"
       style="fill:none;stroke:#ebebeb;stroke-width:1.07;stroke-linecap:butt;stroke-linejoin:round;stroke-miterlimit:10;stroke-dasharray:none;stroke-opacity:1"
       transform="matrix(0.35277776,0,0,-0.35277776,-53.18125,158.20319)"
       clip-path="url(#clipPath25)" />
    <path
       id="path26"
       d="M 214.58,31.91 V 402.04"
       style="fill:none;stroke:#ebebeb;stroke-width:1.07;stroke-linecap:butt;stroke-linejoin:round;stroke-miterlimit:10;stroke-dasharray:none;stroke-opacity:1"
       transform="matrix(0.35277776,0,0,-0.35277776,-53.18125,158.20319)"
       clip-path="url(#clipPath27)" />
    <path
       id="path28"
       d="M 266.28,31.91 V 402.04"
       style="fill:none;stroke:#ebebeb;stroke-width:1.07;stroke-linecap:butt;stroke-linejoin:round;stroke-miterlimit:10;stroke-dasharray:none;stroke-opacity:1"
       transform="matrix(0.35277776,0,0,-0.35277776,-53.18125,158.20319)"
       clip-path="url(#clipPath29)" />
    <path
       id="path30"
       d="M 317.97,31.91 V 402.04"
       style="fill:none;stroke:#ebebeb;stroke-width:1.07;stroke-linecap:butt;stroke-linejoin:round;stroke-miterlimit:10;stroke-dasharray:none;stroke-opacity:1"
       transform="matrix(0.35277776,0,0,-0.35277776,-53.18125,158.20319)"
       clip-path="url(#clipPath31)" />
    <path
       id="path32"
       d="m 59.49,380.78 v 4.44"
       style="fill:none;stroke:#333333;stroke-width:1.07;stroke-linecap:butt;stroke-linejoin:round;stroke-miterlimit:10;stroke-dasharray:none;stroke-opacity:1"
       transform="matrix(0.35277776,0,0,-0.35277776,-53.18125,158.20319)"
       clip-path="url(#clipPath33)" />
    <path
       id="path34"
       d="m 59.49,355.97 v -9.64"
       style="fill:none;stroke:#333333;stroke-width:1.07;stroke-linecap:butt;stroke-linejoin:round;stroke-miterlimit:10;stroke-dasharray:none;stroke-opacity:1"
       transform="matrix(0.35277776,0,0,-0.35277776,-53.18125,158.20319)"
       clip-path="url(#clipPath35)" />
    <path
       id="path36"
       d="m 40.1,380.78 v -24.81 h 38.78 v 24.81 z"
       style="fill:#f8766d;fill-opacity:1;fill-rule:nonzero;stroke:#333333;stroke-width:1.07;stroke-linecap:butt;stroke-linejoin:miter;stroke-miterlimit:10;stroke-dasharray:none;stroke-opacity:1"
       transform="matrix(0.35277776,0,0,-0.35277776,-53.18125,158.20319)"
       clip-path="url(#clipPath37)" />
    <path
       id="path38"
       d="M 40.1,373.38 H 78.88"
       style="fill:none;stroke:#333333;stroke-width:2.13;stroke-linecap:butt;stroke-linejoin:miter;stroke-miterlimit:10;stroke-dasharray:none;stroke-opacity:1"
       transform="matrix(0.35277776,0,0,-0.35277776,-53.18125,158.20319)"
       clip-path="url(#clipPath39)" />
    <path
       id="path40"
       d="m 111.19,240.32 v 46.16"
       style="fill:none;stroke:#333333;stroke-width:1.07;stroke-linecap:butt;stroke-linejoin:round;stroke-miterlimit:10;stroke-dasharray:none;stroke-opacity:1"
       transform="matrix(0.35277776,0,0,-0.35277776,-53.18125,158.20319)"
       clip-path="url(#clipPath41)" />
    <path
       id="path42"
       d="M 111.19,159.28 V 100.73"
       style="fill:none;stroke:#333333;stroke-width:1.07;stroke-linecap:butt;stroke-linejoin:round;stroke-miterlimit:10;stroke-dasharray:none;stroke-opacity:1"
       transform="matrix(0.35277776,0,0,-0.35277776,-53.18125,158.20319)"
       clip-path="url(#clipPath43)" />
    <path
       id="path44"
       d="m 91.8,240.32 v -81.04 h 38.77 v 81.04 z"
       style="fill:#b79f00;fill-opacity:1;fill-rule:nonzero;stroke:#333333;stroke-width:1.07;stroke-linecap:butt;stroke-linejoin:miter;stroke-miterlimit:10;stroke-dasharray:none;stroke-opacity:1"
       transform="matrix(0.35277776,0,0,-0.35277776,-53.18125,158.20319)"
       clip-path="url(#clipPath45)" />
    <path
       id="path46"
       d="m 91.8,215.43 h 38.77"
       style="fill:none;stroke:#333333;stroke-width:2.13;stroke-linecap:butt;stroke-linejoin:miter;stroke-miterlimit:10;stroke-dasharray:none;stroke-opacity:1"
       transform="matrix(0.35277776,0,0,-0.35277776,-53.18125,158.20319)"
       clip-path="url(#clipPath47)" />
    <path
       id="path48"
       d="m 162.88,335.47 v 10.19"
       style="fill:none;stroke:#333333;stroke-width:1.07;stroke-linecap:butt;stroke-linejoin:round;stroke-miterlimit:10;stroke-dasharray:none;stroke-opacity:1"
       transform="matrix(0.35277776,0,0,-0.35277776,-53.18125,158.20319)"
       clip-path="url(#clipPath49)" />
    <path
       id="path50"
       d="M 162.88,260.7 V 196.82"
       style="fill:none;stroke:#333333;stroke-width:1.07;stroke-linecap:butt;stroke-linejoin:round;stroke-miterlimit:10;stroke-dasharray:none;stroke-opacity:1"
       transform="matrix(0.35277776,0,0,-0.35277776,-53.18125,158.20319)"
       clip-path="url(#clipPath51)" />
    <path
       id="path52"
       d="M 143.5,335.47 V 260.7 h 38.77 v 74.77 z"
       style="fill:#00ba38;fill-opacity:1;fill-rule:nonzero;stroke:#333333;stroke-width:1.07;stroke-linecap:butt;stroke-linejoin:miter;stroke-miterlimit:10;stroke-dasharray:none;stroke-opacity:1"
       transform="matrix(0.35277776,0,0,-0.35277776,-53.18125,158.20319)"
       clip-path="url(#clipPath53)" />
    <path
       id="path54"
       d="m 143.5,291.36 h 38.77"
       style="fill:none;stroke:#333333;stroke-width:2.13;stroke-linecap:butt;stroke-linejoin:miter;stroke-miterlimit:10;stroke-dasharray:none;stroke-opacity:1"
       transform="matrix(0.35277776,0,0,-0.35277776,-53.18125,158.20319)"
       clip-path="url(#clipPath55)" />
    <path
       id="path56"
       d="M 214.58,302.41 V 318.3"
       style="fill:none;stroke:#333333;stroke-width:1.07;stroke-linecap:butt;stroke-linejoin:round;stroke-miterlimit:10;stroke-dasharray:none;stroke-opacity:1"
       transform="matrix(0.35277776,0,0,-0.35277776,-53.18125,158.20319)"
       clip-path="url(#clipPath57)" />
    <path
       id="path58"
       d="M 214.58,250.93 V 217.17"
       style="fill:none;stroke:#333333;stroke-width:1.07;stroke-linecap:butt;stroke-linejoin:round;stroke-miterlimit:10;stroke-dasharray:none;stroke-opacity:1"
       transform="matrix(0.35277776,0,0,-0.35277776,-53.18125,158.20319)"
       clip-path="url(#clipPath59)" />
    <path
       id="path60"
       d="m 195.19,302.41 v -51.48 h 38.78 v 51.48 z"
       style="fill:#00bfc4;fill-opacity:1;fill-rule:nonzero;stroke:#333333;stroke-width:1.07;stroke-linecap:butt;stroke-linejoin:miter;stroke-miterlimit:10;stroke-dasharray:none;stroke-opacity:1"
       transform="matrix(0.35277776,0,0,-0.35277776,-53.18125,158.20319)"
       clip-path="url(#clipPath61)" />
    <path
       id="path62"
       d="m 195.19,290.6 h 38.78"
       style="fill:none;stroke:#333333;stroke-width:2.13;stroke-linecap:butt;stroke-linejoin:miter;stroke-miterlimit:10;stroke-dasharray:none;stroke-opacity:1"
       transform="matrix(0.35277776,0,0,-0.35277776,-53.18125,158.20319)"
       clip-path="url(#clipPath63)" />
    <path
       id="path64"
       d="m 266.28,354.87 v 9.92"
       style="fill:none;stroke:#333333;stroke-width:1.07;stroke-linecap:butt;stroke-linejoin:round;stroke-miterlimit:10;stroke-dasharray:none;stroke-opacity:1"
       transform="matrix(0.35277776,0,0,-0.35277776,-53.18125,158.20319)"
       clip-path="url(#clipPath65)" />
    <path
       id="path66"
       d="m 266.28,315.31 v -14.8"
       style="fill:none;stroke:#333333;stroke-width:1.07;stroke-linecap:butt;stroke-linejoin:round;stroke-miterlimit:10;stroke-dasharray:none;stroke-opacity:1"
       transform="matrix(0.35277776,0,0,-0.35277776,-53.18125,158.20319)"
       clip-path="url(#clipPath67)" />
    <path
       id="path68"
       d="m 246.89,354.87 v -39.56 h 38.77 v 39.56 z"
       style="fill:#619cff;fill-opacity:1;fill-rule:nonzero;stroke:#333333;stroke-width:1.07;stroke-linecap:butt;stroke-linejoin:miter;stroke-miterlimit:10;stroke-dasharray:none;stroke-opacity:1"
       transform="matrix(0.35277776,0,0,-0.35277776,-53.18125,158.20319)"
       clip-path="url(#clipPath69)" />
    <path
       id="path70"
       d="m 246.89,334.53 h 38.77"
       style="fill:none;stroke:#333333;stroke-width:2.13;stroke-linecap:butt;stroke-linejoin:miter;stroke-miterlimit:10;stroke-dasharray:none;stroke-opacity:1"
       transform="matrix(0.35277776,0,0,-0.35277776,-53.18125,158.20319)"
       clip-path="url(#clipPath71)" />
    <path
       id="path72"
       d="m 317.97,245.16 v 21.72"
       style="fill:none;stroke:#333333;stroke-width:1.07;stroke-linecap:butt;stroke-linejoin:round;stroke-miterlimit:10;stroke-dasharray:none;stroke-opacity:1"
       transform="matrix(0.35277776,0,0,-0.35277776,-53.18125,158.20319)"
       clip-path="url(#clipPath73)" />
    <path
       id="path74"
       d="M 317.97,143.17 V 48.73"
       style="fill:none;stroke:#333333;stroke-width:1.07;stroke-linecap:butt;stroke-linejoin:round;stroke-miterlimit:10;stroke-dasharray:none;stroke-opacity:1"
       transform="matrix(0.35277776,0,0,-0.35277776,-53.18125,158.20319)"
       clip-path="url(#clipPath75)" />
    <path
       id="path76"
       d="M 298.59,245.16 V 143.17 h 38.77 v 101.99 z"
       style="fill:#f564e3;fill-opacity:1;fill-rule:nonzero;stroke:#333333;stroke-width:1.07;stroke-linecap:butt;stroke-linejoin:miter;stroke-miterlimit:10;stroke-dasharray:none;stroke-opacity:1"
       transform="matrix(0.35277776,0,0,-0.35277776,-53.18125,158.20319)"
       clip-path="url(#clipPath77)" />
    <path
       id="path78"
       d="m 298.59,170.55 h 38.77"
       style="fill:none;stroke:#333333;stroke-width:2.13;stroke-linecap:butt;stroke-linejoin:miter;stroke-miterlimit:10;stroke-dasharray:none;stroke-opacity:1"
       transform="matrix(0.35277776,0,0,-0.35277776,-53.18125,158.20319)"
       clip-path="url(#clipPath79)" />
    <path
       id="path80"
       d="M 28.47,31.91 H 348.99 V 402.04 H 28.47 Z"
       style="fill:none;stroke:#333333;stroke-width:1.07;stroke-linecap:round;stroke-linejoin:round;stroke-miterlimit:10;stroke-dasharray:none;stroke-opacity:1"
       transform="matrix(0.35277776,0,0,-0.35277776,-53.18125,158.20319)"
       clip-path="url(#clipPath81)" />
    <path
       id="path82"
       d="m -46.508789,132.85625 0.28112,-0.0372 c 0.02997,0.15709 0.08372,0.27182 0.16123,0.34313 0.07648,0.0693 0.170532,0.10335 0.28112,0.10335 0.132292,0 0.243913,-0.0455 0.334863,-0.13642 0.09095,-0.0909 0.136426,-0.20361 0.136426,-0.339 0,-0.12609 -0.04341,-0.23151 -0.128158,-0.31419 -0.08268,-0.0847 -0.189135,-0.12816 -0.318326,-0.12816 -0.05271,0 -0.118856,0.0114 -0.198438,0.0331 l 0.03307,-0.24804 c 0.0186,0.003 0.03411,0.004 0.04548,0.004 0.117823,0 0.224276,-0.03 0.318327,-0.0909 0.09612,-0.0631 0.144694,-0.15916 0.144694,-0.28939 0,-0.10128 -0.03514,-0.18603 -0.103353,-0.25218 -0.06925,-0.0682 -0.159163,-0.10335 -0.268717,-0.10335 -0.107487,0 -0.198438,0.0351 -0.272852,0.10335 -0.07235,0.0693 -0.117822,0.17157 -0.136425,0.30592 l -0.28112,-0.0496 c 0.03307,-0.18397 0.109554,-0.32763 0.23151,-0.42995 0.120923,-0.10439 0.270785,-0.1571 0.450619,-0.1571 0.124023,0 0.237711,0.0279 0.343131,0.0827 0.104386,0.0527 0.183968,0.12403 0.239779,0.21498 0.05478,0.091 0.08268,0.18913 0.08268,0.29352 0,0.0971 -0.02687,0.18603 -0.07855,0.26872 -0.05271,0.0806 -0.130225,0.14366 -0.231511,0.19017 0.132292,0.031 0.235645,0.0951 0.310059,0.1943 0.07441,0.0971 0.111621,0.21911 0.111621,0.36794 0,0.19843 -0.07338,0.3669 -0.219108,0.50436 -0.14366,0.13849 -0.325561,0.2067 -0.545703,0.2067 -0.198438,0 -0.363802,-0.0589 -0.496094,-0.17776 -0.132291,-0.12093 -0.208773,-0.27492 -0.227376,-0.46302 z m 0,0"
       style="fill:#4d4d4d;fill-opacity:1;fill-rule:nonzero;stroke:none;stroke-width:0.352778"
       aria-label="3" />
    <path
       id="path83"
       d="m -45.61582,98.65058 v -0.545703 h -0.98392 v -0.256315 l 1.037663,-1.471745 h 0.227376 v 1.471745 h 0.305925 v 0.256315 h -0.305925 v 0.545703 z m 0,-0.802018 v -1.021126 l -0.711068,1.021126 z m 0,0"
       style="fill:#4d4d4d;fill-opacity:1;fill-rule:nonzero;stroke:none;stroke-width:0.352778"
       aria-label="4" />
    <path
       id="path84"
       d="m -46.508789,63.247057 0.293522,-0.02481 c 0.0217,0.143661 0.07131,0.251148 0.148828,0.322461 0.07958,0.07235 0.1757,0.107487 0.289388,0.107487 0.132292,0 0.244946,-0.05064 0.338998,-0.152962 0.09302,-0.101286 0.140559,-0.235645 0.140559,-0.401009 0,-0.159164 -0.04547,-0.285254 -0.136425,-0.376205 -0.08888,-0.09302 -0.205673,-0.14056 -0.3514,-0.14056 -0.08888,0 -0.169499,0.02067 -0.243913,0.06201 -0.07235,0.04134 -0.128157,0.09405 -0.169498,0.157096 l -0.26045,-0.03307 0.219108,-1.165821 h 1.132748 v 0.264584 h -0.909505 l -0.11989,0.611848 c 0.134359,-0.09612 0.276986,-0.144694 0.425814,-0.144694 0.198438,0 0.364836,0.06925 0.500228,0.206706 0.137459,0.138493 0.206706,0.31626 0.206706,0.533301 0,0.204639 -0.05994,0.382405 -0.177767,0.533301 -0.146761,0.181901 -0.345199,0.272851 -0.595313,0.272851 -0.206706,0 -0.376204,-0.05788 -0.508496,-0.173633 -0.130224,-0.115755 -0.204639,-0.268717 -0.223242,-0.458886 z m 0,0"
       style="fill:#4d4d4d;fill-opacity:1;fill-rule:nonzero;stroke:none;stroke-width:0.352778"
       aria-label="5" />
    <path
       id="path85"
       d="m -45.061849,27.321601 -0.276986,0.02067 c -0.0248,-0.109554 -0.05994,-0.190169 -0.103353,-0.239778 -0.07751,-0.07958 -0.171565,-0.11989 -0.281119,-0.11989 -0.08888,0 -0.167432,0.02481 -0.235645,0.07441 -0.08578,0.06615 -0.155029,0.161231 -0.206706,0.285254 -0.04961,0.121957 -0.07648,0.295589 -0.07855,0.520899 0.06615,-0.101286 0.146761,-0.177767 0.243913,-0.227377 0.09922,-0.04961 0.202572,-0.07441 0.310059,-0.07441 0.183968,0 0.341064,0.06925 0.471289,0.206706 0.132291,0.138493 0.198437,0.314193 0.198437,0.529167 0,0.14366 -0.03204,0.276985 -0.09508,0.401009 -0.06098,0.121956 -0.144694,0.214974 -0.252181,0.281119 -0.107486,0.06305 -0.229443,0.09509 -0.363802,0.09509 -0.234611,0 -0.42478,-0.08475 -0.570507,-0.256315 -0.146761,-0.170532 -0.219108,-0.451652 -0.219108,-0.843359 0,-0.440284 0.08062,-0.760677 0.243912,-0.959115 0.14056,-0.173633 0.330729,-0.260449 0.570508,-0.260449 0.178801,0 0.324528,0.05168 0.438216,0.152962 0.115755,0.09922 0.183968,0.237712 0.206706,0.413412 z m -1.136881,0.979785 c 0,0.09715 0.0186,0.189135 0.05788,0.276985 0.04134,0.08578 0.09715,0.151929 0.169499,0.198438 0.07441,0.04754 0.152962,0.07028 0.235644,0.07028 0.115756,0 0.216008,-0.04651 0.301791,-0.14056 0.08475,-0.09612 0.128157,-0.225309 0.128157,-0.388607 0,-0.157096 -0.04341,-0.28112 -0.128157,-0.37207 -0.08268,-0.09095 -0.188103,-0.136426 -0.314193,-0.136426 -0.127124,0 -0.234611,0.04548 -0.322461,0.136426 -0.08578,0.09095 -0.128157,0.209806 -0.128157,0.355534 z m 0,0"
       style="fill:#4d4d4d;fill-opacity:1;fill-rule:nonzero;stroke:none;stroke-width:0.352778"
       aria-label="6" />
    <path
       id="path86"
       d="m -44.104278,132.31636 h 0.966611"
       style="fill:none;stroke:#333333;stroke-width:0.377472;stroke-linecap:butt;stroke-linejoin:round;stroke-miterlimit:10;stroke-dasharray:none;stroke-opacity:1" />
    <path
       id="path87"
       d="m -44.104278,97.511304 h 0.966611"
       style="fill:none;stroke:#333333;stroke-width:0.377472;stroke-linecap:butt;stroke-linejoin:round;stroke-miterlimit:10;stroke-dasharray:none;stroke-opacity:1" />
    <path
       id="path88"
       d="m -44.104278,62.702723 h 0.966611"
       style="fill:none;stroke:#333333;stroke-width:0.377472;stroke-linecap:butt;stroke-linejoin:round;stroke-miterlimit:10;stroke-dasharray:none;stroke-opacity:1" />
    <path
       id="path89"
       d="m -44.104278,27.897669 h 0.966611"
       style="fill:none;stroke:#333333;stroke-width:0.377472;stroke-linecap:butt;stroke-linejoin:round;stroke-miterlimit:10;stroke-dasharray:none;stroke-opacity:1" />
    <path
       id="path90"
       d="m -32.194501,147.91266 v -0.96661"
       style="fill:none;stroke:#333333;stroke-width:0.377472;stroke-linecap:butt;stroke-linejoin:round;stroke-miterlimit:10;stroke-dasharray:none;stroke-opacity:1" />
    <path
       id="path91"
       d="m -13.955891,147.91266 v -0.96661"
       style="fill:none;stroke:#333333;stroke-width:0.377472;stroke-linecap:butt;stroke-linejoin:round;stroke-miterlimit:10;stroke-dasharray:none;stroke-opacity:1" />
    <path
       id="path92"
       d="m 4.2791915,147.91266 v -0.96661"
       style="fill:none;stroke:#333333;stroke-width:0.377472;stroke-linecap:butt;stroke-linejoin:round;stroke-miterlimit:10;stroke-dasharray:none;stroke-opacity:1" />
    <path
       id="path93"
       d="m 22.517802,147.91266 v -0.96661"
       style="fill:none;stroke:#333333;stroke-width:0.377472;stroke-linecap:butt;stroke-linejoin:round;stroke-miterlimit:10;stroke-dasharray:none;stroke-opacity:1" />
    <path
       id="path94"
       d="m 40.756412,147.91266 v -0.96661"
       style="fill:none;stroke:#333333;stroke-width:0.377472;stroke-linecap:butt;stroke-linejoin:round;stroke-miterlimit:10;stroke-dasharray:none;stroke-opacity:1" />
    <path
       id="path95"
       d="m 58.991494,147.91266 v -0.96661"
       style="fill:none;stroke:#333333;stroke-width:0.377472;stroke-linecap:butt;stroke-linejoin:round;stroke-miterlimit:10;stroke-dasharray:none;stroke-opacity:1" />
    <path
       id="path96"
       d="m -35.050057,150.9647 v -2.27376 h 0.855761 c 0.173633,0 0.312126,0.0238 0.417546,0.0703 0.104386,0.0475 0.186035,0.11885 0.243913,0.21497 0.05994,0.0941 0.09095,0.19327 0.09095,0.29766 0,0.0971 -0.02687,0.1881 -0.07855,0.27285 -0.05271,0.0858 -0.132292,0.15503 -0.239779,0.2067 0.13746,0.0413 0.241846,0.11163 0.314193,0.21084 0.07441,0.0972 0.111621,0.21084 0.111621,0.34314 0,0.10542 -0.02274,0.20463 -0.06615,0.29765 -0.04444,0.0909 -0.09922,0.16123 -0.165364,0.21084 -0.06615,0.0496 -0.150896,0.0868 -0.252181,0.11162 -0.09922,0.0248 -0.221175,0.0372 -0.363802,0.0372 z m 0.30179,-1.31878 h 0.49196 c 0.132291,0 0.227376,-0.008 0.285253,-0.0248 0.07648,-0.0217 0.134359,-0.0589 0.173633,-0.11162 0.03824,-0.0548 0.05788,-0.12195 0.05788,-0.20257 0,-0.0744 -0.0186,-0.14056 -0.05374,-0.19844 -0.03617,-0.0579 -0.08888,-0.0961 -0.157096,-0.11575 -0.06615,-0.0217 -0.180868,-0.0331 -0.343131,-0.0331 h -0.454753 z m 0,1.05006 h 0.566374 c 0.09612,0 0.163297,-0.004 0.202571,-0.0124 0.07131,-0.0103 0.129191,-0.03 0.173633,-0.0579 0.04651,-0.03 0.08475,-0.0723 0.115755,-0.12816 0.02997,-0.0548 0.04548,-0.11782 0.04548,-0.19016 0,-0.0847 -0.02274,-0.15917 -0.06614,-0.22325 -0.04134,-0.063 -0.101286,-0.10748 -0.177767,-0.13229 -0.07751,-0.0248 -0.189136,-0.0372 -0.334864,-0.0372 h -0.525032 z m 1.729093,-0.46302 0.28112,-0.0248 c 0.01344,0.11575 0.04547,0.2098 0.09508,0.28112 0.04961,0.0723 0.125057,0.13126 0.227376,0.17776 0.104386,0.0445 0.221175,0.0662 0.3514,0.0662 0.112654,0 0.212907,-0.0165 0.30179,-0.0496 0.08785,-0.0351 0.152962,-0.0827 0.194303,-0.14056 0.04341,-0.0599 0.06615,-0.12506 0.06615,-0.1943 0,-0.0713 -0.02067,-0.13333 -0.06201,-0.18604 -0.04134,-0.0548 -0.109554,-0.10025 -0.202572,-0.13642 -0.06408,-0.0248 -0.200505,-0.062 -0.409277,-0.11163 -0.206706,-0.0496 -0.3514,-0.0961 -0.434082,-0.14056 -0.110588,-0.0579 -0.192237,-0.12815 -0.243913,-0.21083 -0.05271,-0.0848 -0.07855,-0.17984 -0.07855,-0.28526 0,-0.11265 0.03101,-0.21911 0.09508,-0.31833 0.06615,-0.10128 0.161231,-0.17776 0.285254,-0.22737 0.126091,-0.0517 0.265617,-0.0786 0.417546,-0.0786 0.167431,0 0.316259,0.0279 0.446484,0.0827 0.129191,0.0527 0.22841,0.13229 0.297656,0.23978 0.06821,0.10542 0.10542,0.22324 0.111621,0.35553 l -0.289388,0.0207 c -0.01654,-0.14263 -0.07028,-0.25012 -0.16123,-0.32247 -0.08888,-0.0744 -0.219108,-0.11162 -0.392741,-0.11162 -0.181901,0 -0.314193,0.0331 -0.396875,0.0992 -0.08268,0.0661 -0.124023,0.14676 -0.124023,0.23978 0,0.0827 0.02894,0.1509 0.08682,0.20257 0.05788,0.0527 0.207739,0.10646 0.450619,0.16123 0.244946,0.0558 0.413411,0.10336 0.504361,0.1447 0.132292,0.0641 0.229444,0.14262 0.293523,0.23564 0.06304,0.0909 0.09508,0.19844 0.09508,0.32246 0,0.12196 -0.03514,0.23565 -0.103353,0.34313 -0.06925,0.10542 -0.168465,0.18811 -0.297656,0.24805 -0.130224,0.0579 -0.275952,0.0868 -0.438216,0.0868 -0.206706,0 -0.380339,-0.0289 -0.520898,-0.0868 -0.138493,-0.0599 -0.247014,-0.15089 -0.326595,-0.27285 -0.07751,-0.12092 -0.117823,-0.25735 -0.11989,-0.40928 z m 2.233455,0.73174 v -2.27376 h 1.533757 v 0.26871 h -1.231966 v 0.7028 h 1.066602 v 0.26872 h -1.066602 v 1.03353 z m 0,0"
       style="fill:#4d4d4d;fill-opacity:1;fill-rule:nonzero;stroke:none;stroke-width:0.352778"
       aria-label="BSF" />
    <path
       id="path97"
       d="m -13.233301,150.16682 0.297656,0.0785 c -0.06408,0.24598 -0.176733,0.43305 -0.338997,0.56224 -0.163298,0.13023 -0.362769,0.19431 -0.599447,0.19431 -0.24598,0 -0.445451,-0.0496 -0.599447,-0.14883 -0.155029,-0.0992 -0.271818,-0.24185 -0.351399,-0.42995 -0.08061,-0.19017 -0.11989,-0.39377 -0.11989,-0.61185 0,-0.23668 0.04548,-0.44338 0.136426,-0.62012 0.09095,-0.1757 0.219108,-0.31005 0.384473,-0.401 0.167431,-0.0909 0.352433,-0.13643 0.553971,-0.13643 0.225309,0 0.415479,0.0579 0.570508,0.17363 0.157096,0.11576 0.265617,0.27906 0.326595,0.48783 l -0.297656,0.0703 c -0.05271,-0.16537 -0.130225,-0.28526 -0.231511,-0.35967 -0.09922,-0.0765 -0.225309,-0.11575 -0.376204,-0.11575 -0.173633,0 -0.320394,0.0434 -0.438216,0.12815 -0.115755,0.0827 -0.198438,0.19431 -0.248047,0.33487 -0.04754,0.14056 -0.07028,0.28732 -0.07028,0.43821 0,0.19327 0.02687,0.36174 0.08268,0.50436 0.05788,0.14366 0.145728,0.25115 0.264584,0.32246 0.117822,0.0724 0.248046,0.10749 0.388606,0.10749 0.167432,0 0.310059,-0.0475 0.425814,-0.14469 0.117822,-0.0961 0.198438,-0.24081 0.239779,-0.43408 z m 0,0"
       style="fill:#4d4d4d;fill-opacity:1;fill-rule:nonzero;stroke:none;stroke-width:0.352778"
       aria-label="C" />
    <path
       id="path98"
       d="m 2.8876774,150.16682 0.2976562,0.0785 c -0.064079,0.24598 -0.1767334,0.43305 -0.3389974,0.56224 -0.1632975,0.13023 -0.3627685,0.19431 -0.5994466,0.19431 -0.2459798,0 -0.4454508,-0.0496 -0.5994465,-0.14883 -0.1550293,-0.0992 -0.2718181,-0.24185 -0.3513998,-0.42995 -0.080615,-0.19017 -0.1198893,-0.39377 -0.1198893,-0.61185 0,-0.23668 0.045475,-0.44338 0.1364258,-0.62012 0.09095,-0.1757 0.2191081,-0.31005 0.3844726,-0.401 0.1674317,-0.0909 0.3524333,-0.13643 0.5539714,-0.13643 0.2253092,0 0.4154785,0.0579 0.5705077,0.17363 0.1570964,0.11576 0.2656169,0.27906 0.3265951,0.48783 l -0.2976563,0.0703 c -0.05271,-0.16537 -0.1302246,-0.28526 -0.2315104,-0.35967 -0.099219,-0.0765 -0.2253092,-0.11575 -0.3762044,-0.11575 -0.1736328,0 -0.3203938,0.0434 -0.4382161,0.12815 -0.1157552,0.0827 -0.1984375,0.19431 -0.2480469,0.33487 -0.047542,0.14056 -0.07028,0.28732 -0.07028,0.43821 0,0.19327 0.026872,0.36174 0.082682,0.50436 0.057878,0.14366 0.1457275,0.25115 0.2645833,0.32246 0.1178223,0.0724 0.2480469,0.10749 0.3886067,0.10749 0.1674317,0 0.3100586,-0.0475 0.4258138,-0.14469 0.1178223,-0.0961 0.1984375,-0.24081 0.2397787,-0.43408 z m 0.6800618,0.79788 v -2.27376 h 0.2976562 v 0.93431 h 1.1823568 v -0.93431 h 0.3017905 v 2.27376 H 5.0477522 v -1.07074 H 3.8653954 v 1.07074 z m 2.8587401,0 v -2.00505 H 5.6782045 v -0.26871 h 1.8024739 v 0.26871 H 6.7282698 v 2.00505 z m 0,0"
       style="fill:#4d4d4d;fill-opacity:1;fill-rule:nonzero;stroke:none;stroke-width:0.352778"
       aria-label="CHT" />
    <path
       id="path99"
       d="m 20.481436,150.9647 v -2.27376 h 0.297656 v 0.93431 h 1.182357 v -0.93431 h 0.30179 v 2.27376 h -0.30179 v -1.07074 h -1.182357 v 1.07074 z m 3.904671,-0.79788 0.297657,0.0785 c -0.06408,0.24598 -0.176734,0.43305 -0.338998,0.56224 -0.163298,0.13023 -0.362768,0.19431 -0.599447,0.19431 -0.245979,0 -0.44545,-0.0496 -0.599446,-0.14883 -0.155029,-0.0992 -0.271818,-0.24185 -0.3514,-0.42995 -0.08062,-0.19017 -0.119889,-0.39377 -0.119889,-0.61185 0,-0.23668 0.04547,-0.44338 0.136426,-0.62012 0.09095,-0.1757 0.219108,-0.31005 0.384472,-0.401 0.167432,-0.0909 0.352433,-0.13643 0.553972,-0.13643 0.225309,0 0.415478,0.0579 0.570508,0.17363 0.157096,0.11576 0.265616,0.27906 0.326594,0.48783 l -0.297656,0.0703 c -0.05271,-0.16537 -0.130225,-0.28526 -0.23151,-0.35967 -0.09922,-0.0765 -0.225309,-0.11575 -0.376205,-0.11575 -0.173632,0 -0.320394,0.0434 -0.438216,0.12815 -0.115755,0.0827 -0.198437,0.19431 -0.248047,0.33487 -0.04754,0.14056 -0.07028,0.28732 -0.07028,0.43821 0,0.19327 0.02687,0.36174 0.08268,0.50436 0.05788,0.14366 0.145727,0.25115 0.264583,0.32246 0.117822,0.0724 0.248047,0.10749 0.388607,0.10749 0.167431,0 0.310058,-0.0475 0.425814,-0.14469 0.117822,-0.0961 0.198437,-0.24081 0.239778,-0.43408 z m 0,0"
       style="fill:#4d4d4d;fill-opacity:1;fill-rule:nonzero;stroke:none;stroke-width:0.352778"
       aria-label="HC" />
    <path
       id="path100"
       d="m 38.170277,150.9647 v -2.27376 h 0.454753 l 0.537435,1.60817 c 0.04961,0.15193 0.08475,0.26458 0.107487,0.33899 0.0248,-0.0827 0.06408,-0.2036 0.119889,-0.3638 l 0.545703,-1.58336 h 0.405144 v 2.27376 H 40.0513 v -1.90169 l -0.661459,1.90169 H 39.11699 l -0.657324,-1.93477 v 1.93477 z m 3.049943,0 -0.60358,-2.27376 h 0.310058 l 0.347266,1.49241 c 0.03514,0.15503 0.06718,0.30903 0.09508,0.46302 0.05788,-0.24184 0.09198,-0.3824 0.103352,-0.42168 l 0.429948,-1.53375 h 0.363802 l 0.326595,1.14928 c 0.07958,0.28732 0.138493,0.55604 0.177767,0.80615 0.02687,-0.14262 0.06408,-0.30799 0.111621,-0.49609 l 0.355534,-1.45934 h 0.30179 l -0.620117,2.27376 h -0.293522 l -0.475423,-1.73219 c -0.04134,-0.14263 -0.06615,-0.23151 -0.07441,-0.26459 -0.02274,0.10232 -0.04444,0.19017 -0.06615,0.26459 l -0.479557,1.73219 z m 0,0"
       style="fill:#4d4d4d;fill-opacity:1;fill-rule:nonzero;stroke:none;stroke-width:0.352778"
       aria-label="MW" />
    <path
       id="path101"
       d="m 56.939159,149.85676 c 0,-0.37724 0.100253,-0.6718 0.301791,-0.8847 0.203605,-0.21498 0.465087,-0.32246 0.785481,-0.32246 0.211874,0 0.402043,0.0517 0.570508,0.15296 0.167432,0.0992 0.295589,0.23874 0.384473,0.41754 0.08785,0.17984 0.132291,0.38344 0.132291,0.61185 0,0.22945 -0.04754,0.43408 -0.140559,0.61599 -0.09405,0.1819 -0.226343,0.32039 -0.396875,0.41341 -0.168466,0.0941 -0.3514,0.14056 -0.549838,0.14056 -0.214974,0 -0.40721,-0.0507 -0.574642,-0.15297 -0.168465,-0.10438 -0.296622,-0.24494 -0.384472,-0.42167 -0.08578,-0.17881 -0.128158,-0.36897 -0.128158,-0.57051 z m 0.310059,0.004 c 0,0.27595 0.07235,0.49196 0.219108,0.64906 0.148828,0.15709 0.334863,0.23564 0.558105,0.23564 0.22531,0 0.411345,-0.0786 0.558106,-0.23564 0.145727,-0.15917 0.219108,-0.38654 0.219108,-0.68213 0,-0.18397 -0.03204,-0.3452 -0.09509,-0.48369 -0.06098,-0.13746 -0.151928,-0.24392 -0.272851,-0.31833 -0.121957,-0.0765 -0.256315,-0.11575 -0.405144,-0.11575 -0.212906,0 -0.395841,0.0734 -0.549837,0.2191 -0.155029,0.14676 -0.23151,0.39068 -0.23151,0.73174 z m 2.267562,1.10381 v -2.27376 h 1.533756 v 0.26871 H 59.81857 v 0.7028 h 1.066602 v 0.26872 H 59.81857 v 1.03353 z m 0,0"
       style="fill:#4d4d4d;fill-opacity:1;fill-rule:nonzero;stroke:none;stroke-width:0.352778"
       aria-label="OF" />
    <path
       id="path102"
       d="m 5.7949952,155.4161 v -2.45153 H 4.881356 v -0.32659 h 2.2034829 v 0.32659 H 6.1629314 v 2.45153 z m 1.153418,0 v -2.01331 h 0.3059244 v 0.30592 c 0.079582,-0.14262 0.1529622,-0.23668 0.2191081,-0.28112 0.066146,-0.0465 0.1384928,-0.0703 0.2191081,-0.0703 0.1126546,0 0.2294433,0.0372 0.3513997,0.11162 l -0.1198893,0.3142 c -0.082682,-0.0496 -0.1653646,-0.0744 -0.2480469,-0.0744 -0.074414,0 -0.142627,0.0238 -0.2025716,0.0703 -0.060978,0.0444 -0.1033529,0.10646 -0.1281576,0.18604 -0.036174,0.12195 -0.053744,0.25425 -0.053744,0.39687 v 1.0542 z m 2.6727049,-0.64905 0.3555337,0.0455 c -0.057877,0.20464 -0.1632973,0.3638 -0.3141927,0.47956 -0.1488281,0.11369 -0.3410641,0.1695 -0.5746418,0.1695 -0.2924884,0 -0.5250325,-0.0909 -0.6986654,-0.27285 -0.1736327,-0.18191 -0.2604491,-0.43512 -0.2604491,-0.76068 0,-0.339 0.086816,-0.60151 0.2604491,-0.78962 0.1756999,-0.18707 0.4030764,-0.28112 0.6821289,-0.28112 0.2666506,0 0.4857584,0.093 0.6573241,0.27699 0.1705324,0.1819 0.2563153,0.44028 0.2563153,0.77308 0,0.0196 0,0.0496 0,0.091 H 8.4842368 c 0.010336,0.22117 0.072347,0.39067 0.1860348,0.50849 0.1126547,0.11576 0.2532147,0.17364 0.4216799,0.17364 0.1240232,0 0.2294435,-0.0331 0.3183269,-0.0992 0.08785,-0.0662 0.1581298,-0.17053 0.2108397,-0.31419 z m -1.1203449,-0.54984 h 1.1244791 c -0.014471,-0.17053 -0.056844,-0.29766 -0.1281578,-0.38034 -0.1074868,-0.13229 -0.2480468,-0.19844 -0.4216795,-0.19844 -0.1570965,0 -0.2893882,0.0527 -0.396875,0.1571 -0.1074871,0.10542 -0.1674315,0.24598 -0.1777668,0.42168 z m 3.2163408,0.95085 c -0.127124,0.10748 -0.250114,0.18396 -0.367936,0.22737 -0.115755,0.0434 -0.241846,0.0661 -0.376205,0.0661 -0.221175,0 -0.390673,-0.0538 -0.508496,-0.16123 -0.118855,-0.10749 -0.177766,-0.24495 -0.177766,-0.41341 0,-0.0992 0.0217,-0.18811 0.06614,-0.26872 0.04341,-0.0827 0.101286,-0.14883 0.173633,-0.19844 0.07441,-0.0496 0.157097,-0.0868 0.248047,-0.11162 0.06821,-0.0186 0.170532,-0.0372 0.305925,-0.0537 0.274918,-0.0331 0.47749,-0.0713 0.607714,-0.11576 0,-0.0465 0,-0.0765 0,-0.0909 0,-0.13746 -0.03204,-0.23564 -0.09508,-0.29352 -0.08888,-0.0765 -0.218075,-0.11576 -0.388607,-0.11576 -0.160197,0 -0.279053,0.0289 -0.355534,0.0868 -0.07752,0.0558 -0.134359,0.15503 -0.169499,0.29766 l -0.334863,-0.0455 c 0.02997,-0.14263 0.07958,-0.25838 0.148828,-0.34727 0.07131,-0.0879 0.171566,-0.15502 0.301791,-0.20257 0.132291,-0.0465 0.285254,-0.0703 0.458886,-0.0703 0.170533,0 0.310059,0.0207 0.417546,0.062 0.107487,0.0393 0.186035,0.0899 0.235644,0.15297 0.05168,0.061 0.08785,0.13849 0.107487,0.23151 0.01034,0.0579 0.01653,0.1633 0.01653,0.31419 v 0.45475 c 0,0.3173 0.0062,0.51883 0.02067,0.60358 0.01654,0.0827 0.04547,0.1633 0.08682,0.23978 H 11.78326 c -0.03617,-0.0713 -0.05788,-0.15399 -0.06615,-0.24804 z m -0.02894,-0.76068 c -0.124024,0.0496 -0.310059,0.093 -0.558106,0.12816 -0.14056,0.0196 -0.239779,0.0413 -0.297656,0.0661 -0.05788,0.0248 -0.103353,0.062 -0.136426,0.11162 -0.03101,0.0496 -0.04547,0.10336 -0.04547,0.16123 0,0.091 0.03411,0.16743 0.103353,0.22738 0.06821,0.061 0.169498,0.0909 0.30179,0.0909 0.132292,0 0.249081,-0.0269 0.3514,-0.0827 0.101286,-0.0579 0.1757,-0.13746 0.223242,-0.23978 0.03824,-0.0765 0.05788,-0.19017 0.05788,-0.339 z m 1.615405,0.7028 0.04961,0.30179 c -0.09715,0.0186 -0.181901,0.0289 -0.256315,0.0289 -0.124024,0 -0.221175,-0.0196 -0.289388,-0.0579 -0.06925,-0.0382 -0.117823,-0.0889 -0.144694,-0.15296 -0.02791,-0.0631 -0.04134,-0.19844 -0.04134,-0.40515 v -1.15755 h -0.248047 v -0.26458 h 0.248047 v -0.50023 l 0.338997,-0.20257 v 0.7028 h 0.343131 v 0.26458 h -0.343131 v 1.17822 c 0,0.0972 0.0052,0.15917 0.01653,0.18604 0.01344,0.0279 0.03411,0.0496 0.06201,0.0661 0.02687,0.0165 0.06615,0.0248 0.115755,0.0248 0.03824,0 0.08785,-0.004 0.148829,-0.0124 z m 0.334863,0.30592 v -2.01331 h 0.305925 v 0.28112 c 0.06305,-0.0961 0.14676,-0.17467 0.25218,-0.23565 0.104387,-0.0599 0.223243,-0.0909 0.355534,-0.0909 0.148828,0 0.270785,0.032 0.367937,0.0951 0.09612,0.061 0.163297,0.14676 0.202571,0.25631 0.159163,-0.23357 0.365869,-0.3514 0.620117,-0.3514 0.200505,0 0.355534,0.0558 0.463021,0.16537 0.107487,0.11059 0.16123,0.28112 0.16123,0.51263 v 1.38079 H 16.02796 v -1.26917 c 0,-0.13436 -0.01137,-0.23254 -0.03307,-0.29352 -0.02274,-0.0599 -0.06408,-0.10852 -0.124024,-0.1447 -0.05788,-0.0351 -0.12609,-0.0537 -0.202571,-0.0537 -0.14056,0 -0.258382,0.0475 -0.3514,0.14056 -0.09405,0.094 -0.14056,0.24391 -0.14056,0.45062 v 1.16995 h -0.343131 v -1.30638 c 0,-0.15089 -0.0279,-0.26458 -0.08268,-0.339 -0.05581,-0.0765 -0.146762,-0.11575 -0.272852,-0.11575 -0.09715,0 -0.186035,0.0248 -0.268717,0.0744 -0.08062,0.0496 -0.139527,0.12403 -0.177768,0.22325 -0.03617,0.0971 -0.05374,0.23564 -0.05374,0.41754 v 1.04593 z m 4.609537,-0.64905 0.355534,0.0455 c -0.05788,0.20464 -0.163297,0.3638 -0.314192,0.47956 -0.148828,0.11369 -0.341065,0.1695 -0.574642,0.1695 -0.292489,0 -0.525033,-0.0909 -0.698665,-0.27285 -0.173633,-0.18191 -0.26045,-0.43512 -0.26045,-0.76068 0,-0.339 0.08682,-0.60151 0.26045,-0.78962 0.175699,-0.18707 0.403076,-0.28112 0.682128,-0.28112 0.266651,0 0.485759,0.093 0.657325,0.27699 0.170532,0.1819 0.256315,0.44028 0.256315,0.77308 0,0.0196 0,0.0496 0,0.091 H 17.1111 c 0.01034,0.22117 0.07235,0.39067 0.186035,0.50849 0.112655,0.11576 0.253215,0.17364 0.42168,0.17364 0.124023,0 0.229443,-0.0331 0.318327,-0.0992 0.08785,-0.0662 0.15813,-0.17053 0.210839,-0.31419 z m -1.120344,-0.54984 h 1.124479 c -0.01447,-0.17053 -0.05684,-0.29766 -0.128158,-0.38034 -0.107487,-0.13229 -0.248047,-0.19844 -0.42168,-0.19844 -0.157096,0 -0.289387,0.0527 -0.396875,0.1571 -0.107486,0.10542 -0.167431,0.24598 -0.177766,0.42168 z m 1.900659,1.19889 v -2.01331 h 0.305924 v 0.28525 c 0.148828,-0.22014 0.361735,-0.33073 0.640788,-0.33073 0.120923,0 0.232544,0.0227 0.334863,0.0661 0.101286,0.0444 0.177767,0.10232 0.227376,0.17363 0.05168,0.0692 0.08785,0.15193 0.107487,0.24805 0.01344,0.0641 0.02067,0.1757 0.02067,0.33486 v 1.2361 h -0.343131 v -1.2237 c 0,-0.14056 -0.01447,-0.24494 -0.04134,-0.31419 -0.0248,-0.0682 -0.07235,-0.12195 -0.14056,-0.16123 -0.06615,-0.0413 -0.144694,-0.062 -0.235644,-0.062 -0.146761,0 -0.272852,0.0475 -0.380339,0.14056 -0.10542,0.0909 -0.157096,0.26458 -0.157096,0.5209 v 1.09967 z m 2.902148,-0.30592 0.04961,0.30179 c -0.09715,0.0186 -0.181901,0.0289 -0.256315,0.0289 -0.124023,0 -0.221175,-0.0196 -0.289388,-0.0579 -0.06925,-0.0382 -0.117822,-0.0889 -0.144694,-0.15296 -0.0279,-0.0631 -0.04134,-0.19844 -0.04134,-0.40515 v -1.15755 h -0.248047 v -0.26458 h 0.248047 v -0.50023 l 0.338997,-0.20257 v 0.7028 h 0.343132 v 0.26458 h -0.343132 v 1.17822 c 0,0.0972 0.0052,0.15917 0.01653,0.18604 0.01344,0.0279 0.03411,0.0496 0.06201,0.0661 0.02687,0.0165 0.06614,0.0248 0.115755,0.0248 0.03824,0 0.08785,-0.004 0.148828,-0.0124 z m 0,0"
       style="fill:#000000;fill-opacity:1;fill-rule:nonzero;stroke:none;stroke-width:0.352778"
       aria-label="Treatment" />
    <path
       id="path103"
       d="m -49.060571,88.980885 -0.05374,-0.334864 c 0.135392,-0.0186 0.238745,-0.07131 0.310058,-0.157096 0.07235,-0.08785 0.107487,-0.21084 0.107487,-0.367936 0,-0.153996 -0.03101,-0.268718 -0.09508,-0.343132 -0.06305,-0.07648 -0.13746,-0.115755 -0.223243,-0.115755 -0.07648,0 -0.137459,0.03307 -0.181901,0.09922 -0.02997,0.04754 -0.06821,0.163297 -0.115755,0.347265 -0.06304,0.251148 -0.117822,0.424781 -0.165364,0.520899 -0.04651,0.09715 -0.109555,0.169498 -0.19017,0.219108 -0.08268,0.04961 -0.173633,0.07441 -0.272851,0.07441 -0.08785,0 -0.170532,-0.0186 -0.248047,-0.05788 -0.07648,-0.04134 -0.14056,-0.09715 -0.190169,-0.169498 -0.03824,-0.05168 -0.07131,-0.124024 -0.09922,-0.214974 -0.02687,-0.09302 -0.04134,-0.192237 -0.04134,-0.297657 0,-0.157096 0.02377,-0.294555 0.07028,-0.413411 0.04444,-0.120923 0.10542,-0.208773 0.181901,-0.264583 0.07751,-0.05788 0.181901,-0.09715 0.314192,-0.11989 l 0.04548,0.334864 c -0.104387,0.01447 -0.186036,0.05788 -0.243913,0.132291 -0.05788,0.07235 -0.08682,0.173633 -0.08682,0.305925 0,0.157096 0.02687,0.270784 0.07855,0.338997 0.05271,0.06615 0.113688,0.09922 0.181901,0.09922 0.04444,0 0.08475,-0.01447 0.119889,-0.04547 0.03617,-0.02687 0.06615,-0.07028 0.09095,-0.128158 0.01137,-0.03514 0.04031,-0.136426 0.08682,-0.30179 0.06408,-0.241846 0.115755,-0.410311 0.157096,-0.504362 0.04134,-0.09612 0.10232,-0.170532 0.181901,-0.223242 0.07751,-0.05478 0.173633,-0.08268 0.289388,-0.08268 0.113688,0 0.221175,0.03307 0.322461,0.09922 0.09922,0.06615 0.176734,0.163298 0.231511,0.289388 0.05478,0.124023 0.08268,0.264583 0.08268,0.42168 0,0.262516 -0.05374,0.461987 -0.161231,0.599446 -0.109554,0.135393 -0.270784,0.222209 -0.483691,0.26045 z m 0.599447,-2.076359 h -2.778125 v -0.338998 h 0.996321 c -0.183968,-0.159163 -0.276985,-0.360701 -0.276985,-0.603581 0,-0.148828 0.03101,-0.278019 0.09095,-0.388606 0.05788,-0.109554 0.139527,-0.188102 0.243913,-0.235645 0.102319,-0.04651 0.251147,-0.07028 0.446484,-0.07028 h 1.277442 v 0.338998 h -1.277442 c -0.167431,0 -0.290421,0.03721 -0.367936,0.111621 -0.07958,0.07441 -0.119889,0.179834 -0.119889,0.314192 0,0.09922 0.02687,0.194304 0.07855,0.285254 0.05271,0.08888 0.124023,0.151929 0.214974,0.19017 0.08888,0.03927 0.212907,0.05788 0.37207,0.05788 h 1.099675 z m -0.248047,-3.472656 c 0.107487,0.127123 0.183968,0.250113 0.227376,0.367936 0.04341,0.115755 0.06615,0.241845 0.06615,0.376204 0,0.221175 -0.05374,0.390674 -0.161231,0.508496 -0.107487,0.118856 -0.244946,0.177767 -0.413411,0.177767 -0.09922,0 -0.188102,-0.0217 -0.268717,-0.06615 -0.08268,-0.04341 -0.148829,-0.101285 -0.198438,-0.173632 -0.04961,-0.07442 -0.08682,-0.157097 -0.111621,-0.248047 -0.0186,-0.06821 -0.03721,-0.170533 -0.05374,-0.305925 -0.03307,-0.274919 -0.07131,-0.47749 -0.115756,-0.607715 -0.04651,0 -0.07648,0 -0.09095,0 -0.13746,0 -0.235645,0.03204 -0.293522,0.09508 -0.07648,0.08888 -0.115756,0.218074 -0.115756,0.388607 0,0.160197 0.02894,0.279052 0.08682,0.355533 0.05581,0.07752 0.155029,0.134359 0.297656,0.169499 l -0.04548,0.334864 c -0.142627,-0.02997 -0.258382,-0.07958 -0.347266,-0.148829 -0.08785,-0.07131 -0.155029,-0.171565 -0.202571,-0.30179 -0.04651,-0.132292 -0.07028,-0.285254 -0.07028,-0.458887 0,-0.170532 0.02067,-0.310058 0.06201,-0.417545 0.03927,-0.107487 0.08992,-0.186035 0.152963,-0.235645 0.06098,-0.05168 0.138492,-0.08785 0.23151,-0.107487 0.05788,-0.01034 0.163298,-0.01653 0.314193,-0.01653 h 0.454752 c 0.317294,0 0.518832,-0.0062 0.603581,-0.02067 0.08268,-0.01653 0.163298,-0.04547 0.239779,-0.08682 v 0.355531 c -0.07131,0.03617 -0.153996,0.05788 -0.248047,0.06615 z m -0.760677,0.02894 c 0.04961,0.124023 0.09302,0.310058 0.128157,0.558105 0.01964,0.14056 0.04134,0.239779 0.06615,0.297657 0.02481,0.05788 0.06201,0.103352 0.111621,0.136425 0.04961,0.03101 0.103353,0.04548 0.161231,0.04548 0.09095,0 0.167431,-0.03411 0.227376,-0.103353 0.06098,-0.06821 0.09095,-0.169499 0.09095,-0.30179 0,-0.132292 -0.02687,-0.249081 -0.08268,-0.3514 -0.05788,-0.101286 -0.137459,-0.1757 -0.239778,-0.223243 -0.07648,-0.03824 -0.19017,-0.05788 -0.338998,-0.05788 z m 1.008724,-0.871265 h -2.013314 v -0.305924 h 0.285254 c -0.220142,-0.148828 -0.330729,-0.361735 -0.330729,-0.640788 0,-0.120923 0.02274,-0.232544 0.06615,-0.334863 0.04444,-0.101286 0.102319,-0.177767 0.173632,-0.227376 0.06925,-0.05168 0.151929,-0.08785 0.248047,-0.107487 0.06408,-0.01344 0.1757,-0.02067 0.334863,-0.02067 h 1.236101 v 0.343131 h -1.223698 c -0.14056,0 -0.244946,0.01447 -0.314193,0.04134 -0.06821,0.0248 -0.121956,0.07235 -0.16123,0.14056 -0.04134,0.06615 -0.06201,0.144694 -0.06201,0.235644 0,0.146762 0.04754,0.272852 0.14056,0.380339 0.09095,0.10542 0.264583,0.157096 0.520898,0.157096 h 1.099675 z m 0,-2.158007 h -2.013314 v -0.305925 h 0.285254 c -0.220142,-0.148828 -0.330729,-0.361735 -0.330729,-0.640788 0,-0.120922 0.02274,-0.232544 0.06615,-0.334863 0.04444,-0.101286 0.102319,-0.177767 0.173632,-0.227376 0.06925,-0.05168 0.151929,-0.08785 0.248047,-0.107487 0.06408,-0.01344 0.1757,-0.02067 0.334863,-0.02067 h 1.236101 v 0.34313 h -1.223698 c -0.14056,0 -0.244946,0.01447 -0.314193,0.04134 -0.06821,0.0248 -0.121956,0.07235 -0.16123,0.14056 -0.04134,0.06615 -0.06201,0.144694 -0.06201,0.235645 0,0.146761 0.04754,0.272851 0.14056,0.380338 0.09095,0.10542 0.264583,0.157096 0.520898,0.157096 h 1.099675 z m -1.00459,-2.028817 c -0.374137,0 -0.651123,-0.103352 -0.830957,-0.310058 -0.148828,-0.173633 -0.223242,-0.385506 -0.223242,-0.636654 0,-0.274918 0.09095,-0.500228 0.272851,-0.673861 0.181901,-0.175699 0.433049,-0.264583 0.752409,-0.264583 0.259416,0 0.463021,0.03927 0.611849,0.115755 0.146761,0.07751 0.260449,0.19017 0.343131,0.338998 0.08268,0.148828 0.124024,0.310058 0.124024,0.483691 0,0.284221 -0.08888,0.512631 -0.268718,0.686263 -0.181901,0.173633 -0.44235,0.260449 -0.781347,0.260449 z m 0,-0.351399 c 0.256315,0 0.449585,-0.05581 0.578776,-0.169499 0.127124,-0.112655 0.190169,-0.254248 0.190169,-0.425814 0,-0.167432 -0.06304,-0.307991 -0.190169,-0.42168 -0.129191,-0.112654 -0.326595,-0.169498 -0.591178,-0.169498 -0.250114,0 -0.43925,0.05788 -0.566374,0.173633 -0.129191,0.113688 -0.194304,0.252181 -0.194304,0.417545 0,0.171566 0.06511,0.313159 0.194304,0.425814 0.127124,0.113688 0.320394,0.169499 0.578776,0.169499 z m 1.00459,-1.934766 h -2.013314 V 75.81063 h 0.285254 c -0.220142,-0.148828 -0.330729,-0.361736 -0.330729,-0.640788 0,-0.120923 0.02274,-0.232544 0.06615,-0.334863 0.04444,-0.101286 0.102319,-0.177767 0.173632,-0.227377 0.06925,-0.05168 0.151929,-0.08785 0.248047,-0.107487 0.06408,-0.01344 0.1757,-0.02067 0.334863,-0.02067 h 1.236101 v 0.34313 h -1.223698 c -0.14056,0 -0.244946,0.01447 -0.314193,0.04134 -0.06821,0.0248 -0.121956,0.07235 -0.16123,0.14056 -0.04134,0.06615 -0.06201,0.144694 -0.06201,0.235645 0,0.146761 0.04754,0.272851 0.14056,0.380339 0.09095,0.105419 0.264583,0.157096 0.520898,0.157096 h 1.099675 z m 0,0"
       style="fill:#000000;fill-opacity:1;fill-rule:nonzero;stroke:none;stroke-width:0.352778"
       aria-label="shannon" />
    <path
       id="path104"
       d="M 73.801105,104.66564 H 94.886631 V 58.649306 H 73.801105 Z"
       style="fill:#ffffff;fill-opacity:1;fill-rule:nonzero;stroke:none;stroke-width:0.352778" />
    <path
       id="path105"
       d="m 76.738467,63.795858 v -2.451529 h -0.913639 v -0.326595 h 2.203483 v 0.326595 h -0.921908 v 2.451529 z m 1.153418,0 v -2.013313 h 0.305924 v 0.305924 c 0.07958,-0.142627 0.152963,-0.236678 0.219108,-0.28112 0.06615,-0.04651 0.138493,-0.07028 0.219109,-0.07028 0.112654,0 0.229443,0.03721 0.351399,0.111621 l -0.119889,0.314192 c -0.08268,-0.04961 -0.165365,-0.07441 -0.248047,-0.07441 -0.07441,0 -0.142627,0.02377 -0.202572,0.07028 -0.06098,0.04444 -0.103352,0.106454 -0.128157,0.186035 -0.03617,0.121957 -0.05374,0.254248 -0.05374,0.396875 v 1.054199 z m 2.672705,-0.649055 0.355534,0.04548 c -0.05788,0.204638 -0.163298,0.363802 -0.314193,0.479557 -0.148828,0.113688 -0.341064,0.169499 -0.574642,0.169499 -0.292488,0 -0.525032,-0.09095 -0.698665,-0.272852 -0.173633,-0.181901 -0.260449,-0.435115 -0.260449,-0.760677 0,-0.338997 0.08682,-0.601514 0.260449,-0.789616 0.1757,-0.187068 0.403076,-0.281119 0.682129,-0.281119 0.26665,0 0.485758,0.09302 0.657324,0.276985 0.170532,0.181901 0.256315,0.440283 0.256315,0.77308 0,0.01964 0,0.04961 0,0.09095 h -1.500684 c 0.01034,0.221175 0.07235,0.390674 0.186036,0.508496 0.112654,0.115755 0.253214,0.173633 0.421679,0.173633 0.124024,0 0.229444,-0.03307 0.318327,-0.09922 0.08785,-0.06615 0.15813,-0.170532 0.21084,-0.314192 z m -1.120345,-0.549838 h 1.124479 c -0.01447,-0.170532 -0.05684,-0.297656 -0.128157,-0.380338 -0.107488,-0.132292 -0.248047,-0.198438 -0.42168,-0.198438 -0.157096,0 -0.289388,0.05271 -0.396875,0.157097 -0.107487,0.10542 -0.167432,0.245979 -0.177767,0.421679 z m 3.216341,0.950847 c -0.127124,0.107487 -0.250114,0.183968 -0.367936,0.227376 -0.115755,0.04341 -0.241846,0.06615 -0.376205,0.06615 -0.221175,0 -0.390673,-0.05374 -0.508496,-0.161231 -0.118856,-0.107487 -0.177767,-0.244946 -0.177767,-0.413411 0,-0.09922 0.0217,-0.188102 0.06615,-0.268718 0.04341,-0.08268 0.101286,-0.148828 0.173633,-0.198437 0.07441,-0.04961 0.157096,-0.08682 0.248047,-0.111621 0.06821,-0.0186 0.170532,-0.03721 0.305924,-0.05374 0.274919,-0.03307 0.477491,-0.07131 0.607715,-0.115755 0,-0.04651 0,-0.07648 0,-0.09095 0,-0.13746 -0.03204,-0.235645 -0.09508,-0.293523 -0.08888,-0.07648 -0.218074,-0.115755 -0.388606,-0.115755 -0.160197,0 -0.279053,0.02894 -0.355534,0.08682 -0.07752,0.05581 -0.134359,0.155029 -0.169499,0.297656 l -0.334863,-0.04547 c 0.02997,-0.142627 0.07958,-0.258382 0.148828,-0.347266 0.07131,-0.08785 0.171566,-0.155029 0.30179,-0.202572 0.132292,-0.04651 0.285254,-0.07028 0.458887,-0.07028 0.170532,0 0.310059,0.02067 0.417546,0.06201 0.107487,0.03927 0.186035,0.08992 0.235644,0.152962 0.05168,0.06098 0.08785,0.138493 0.107487,0.231511 0.01034,0.05788 0.01654,0.163297 0.01654,0.314193 v 0.454752 c 0,0.317293 0.0062,0.518831 0.02067,0.603581 0.01654,0.08268 0.04548,0.163297 0.08682,0.239778 h -0.355534 c -0.03617,-0.07131 -0.05788,-0.153995 -0.06615,-0.248046 z m -0.02894,-0.760677 c -0.124024,0.04961 -0.310059,0.09302 -0.558106,0.128157 -0.140559,0.01964 -0.239778,0.04134 -0.297656,0.06615 -0.05788,0.0248 -0.103353,0.06201 -0.136426,0.111621 -0.031,0.04961 -0.04547,0.103353 -0.04547,0.16123 0,0.09095 0.03411,0.167432 0.103353,0.227377 0.06821,0.06098 0.169499,0.09095 0.30179,0.09095 0.132292,0 0.249081,-0.02687 0.3514,-0.08268 0.101286,-0.05788 0.1757,-0.137459 0.223242,-0.239779 0.03824,-0.07648 0.05788,-0.190169 0.05788,-0.338997 z m 1.615405,0.702799 0.04961,0.30179 c -0.09715,0.0186 -0.181901,0.02894 -0.256315,0.02894 -0.124023,0 -0.221175,-0.01964 -0.289388,-0.05788 -0.06925,-0.03824 -0.117822,-0.08888 -0.144694,-0.152963 -0.0279,-0.06304 -0.04134,-0.198437 -0.04134,-0.405143 v -1.157552 h -0.248047 v -0.264583 h 0.248047 v -0.500228 l 0.338998,-0.202572 v 0.7028 h 0.343131 v 0.264583 h -0.343131 v 1.178223 c 0,0.09715 0.0052,0.159163 0.01653,0.186035 0.01344,0.0279 0.03411,0.04961 0.06201,0.06615 0.02687,0.01654 0.06615,0.0248 0.115755,0.0248 0.03824,0 0.08785,-0.0041 0.148828,-0.0124 z m 0.334863,0.305924 v -2.013313 h 0.305925 v 0.28112 c 0.06305,-0.09612 0.146761,-0.174667 0.252181,-0.235645 0.104386,-0.05994 0.223242,-0.09095 0.355533,-0.09095 0.148829,0 0.270785,0.03204 0.367937,0.09508 0.09612,0.06098 0.163297,0.146761 0.202571,0.256315 0.159164,-0.233577 0.365869,-0.351399 0.620117,-0.351399 0.200505,0 0.355534,0.05581 0.463021,0.165364 0.107487,0.110588 0.161231,0.28112 0.161231,0.51263 v 1.380794 h -0.338998 v -1.269173 c 0,-0.134358 -0.01137,-0.232544 -0.03307,-0.293522 -0.02274,-0.05994 -0.06408,-0.10852 -0.124024,-0.144694 -0.05788,-0.03514 -0.12609,-0.05374 -0.202571,-0.05374 -0.14056,0 -0.258382,0.04754 -0.3514,0.14056 -0.09405,0.09405 -0.14056,0.243912 -0.14056,0.450618 v 1.169954 h -0.343132 v -1.30638 c 0,-0.150895 -0.0279,-0.264583 -0.08268,-0.338997 -0.05581,-0.07648 -0.146761,-0.115755 -0.272851,-0.115755 -0.09715,0 -0.186035,0.0248 -0.268718,0.07441 -0.08061,0.04961 -0.139526,0.124023 -0.177767,0.223242 -0.03617,0.09715 -0.05374,0.235644 -0.05374,0.417546 v 1.04593 z m 4.609538,-0.649055 0.355533,0.04548 c -0.05788,0.204638 -0.163297,0.363802 -0.314192,0.479557 -0.148828,0.113688 -0.341064,0.169499 -0.574642,0.169499 -0.292488,0 -0.525032,-0.09095 -0.698665,-0.272852 -0.173633,-0.181901 -0.26045,-0.435115 -0.26045,-0.760677 0,-0.338997 0.08682,-0.601514 0.26045,-0.789616 0.175699,-0.187068 0.403076,-0.281119 0.682129,-0.281119 0.26665,0 0.485758,0.09302 0.657324,0.276985 0.170532,0.181901 0.256315,0.440283 0.256315,0.77308 0,0.01964 0,0.04961 0,0.09095 H 88.05457 c 0.01034,0.221175 0.07235,0.390674 0.186035,0.508496 0.112655,0.115755 0.253215,0.173633 0.42168,0.173633 0.124023,0 0.229444,-0.03307 0.318327,-0.09922 0.08785,-0.06615 0.15813,-0.170532 0.21084,-0.314192 z m -1.120345,-0.549838 h 1.124479 c -0.01447,-0.170532 -0.05684,-0.297656 -0.128158,-0.380338 -0.107487,-0.132292 -0.248047,-0.198438 -0.421679,-0.198438 -0.157097,0 -0.289388,0.05271 -0.396875,0.157097 -0.107487,0.10542 -0.167432,0.245979 -0.177767,0.421679 z m 1.901693,1.198893 v -2.013313 h 0.305924 v 0.285254 c 0.148828,-0.220142 0.361735,-0.330729 0.640787,-0.330729 0.120923,0 0.232544,0.02274 0.334864,0.06614 0.101286,0.04444 0.177767,0.10232 0.227376,0.173633 0.05168,0.06925 0.08785,0.151929 0.107487,0.248047 0.01344,0.06408 0.02067,0.1757 0.02067,0.334863 v 1.2361 h -0.343131 v -1.223697 c 0,-0.14056 -0.01447,-0.244947 -0.04134,-0.314193 -0.0248,-0.06821 -0.07235,-0.121956 -0.14056,-0.161231 -0.06615,-0.04134 -0.144694,-0.06201 -0.235644,-0.06201 -0.146761,0 -0.272852,0.04754 -0.380338,0.14056 -0.10542,0.09095 -0.157097,0.264583 -0.157097,0.520898 v 1.099674 z m 2.901114,-0.305924 0.04961,0.30179 c -0.09715,0.0186 -0.181901,0.02894 -0.256315,0.02894 -0.124023,0 -0.221175,-0.01964 -0.289388,-0.05788 -0.06925,-0.03824 -0.117822,-0.08888 -0.144694,-0.152963 -0.0279,-0.06304 -0.04134,-0.198437 -0.04134,-0.405143 v -1.15755 H 91.94374 v -0.264583 h 0.248047 v -0.500228 l 0.338997,-0.202572 v 0.7028 h 0.343131 v 0.264583 h -0.343131 v 1.178223 c 0,0.09715 0.0052,0.159163 0.01654,0.186035 0.01344,0.0279 0.03411,0.04961 0.06201,0.06615 0.02687,0.01654 0.06615,0.0248 0.115755,0.0248 0.03824,0 0.08785,-0.0041 0.148829,-0.0124 z m 0,0"
       style="fill:#000000;fill-opacity:1;fill-rule:nonzero;stroke:none;stroke-width:0.352778"
       aria-label="Treatment" />
    <path
       id="path106"
       d="m 75.734327,72.252417 h 6.096 v -6.096 h -6.096 z"
       style="fill:#ffffff;fill-opacity:1;fill-rule:nonzero;stroke:none;stroke-width:0.352778" />
    <path
       id="path107"
       d="M 78.782327,71.642111 V 70.728417"
       style="fill:none;stroke:#333333;stroke-width:0.377472;stroke-linecap:butt;stroke-linejoin:miter;stroke-miterlimit:10;stroke-dasharray:none;stroke-opacity:1" />
    <path
       id="path108"
       d="M 78.782327,67.680417 V 66.766722"
       style="fill:none;stroke:#333333;stroke-width:0.377472;stroke-linecap:butt;stroke-linejoin:miter;stroke-miterlimit:10;stroke-dasharray:none;stroke-opacity:1" />
    <path
       id="path109"
       d="m 76.496327,70.728417 h 4.572 v -3.048 h -4.572 z"
       style="fill:#f8766d;fill-opacity:1;fill-rule:nonzero;stroke:#333333;stroke-width:0.377472;stroke-linecap:butt;stroke-linejoin:miter;stroke-miterlimit:10;stroke-dasharray:none;stroke-opacity:1" />
    <path
       id="path110"
       d="m 76.496327,69.204417 h 4.572"
       style="fill:none;stroke:#333333;stroke-width:0.377472;stroke-linecap:butt;stroke-linejoin:miter;stroke-miterlimit:10;stroke-dasharray:none;stroke-opacity:1" />
    <path
       id="path111"
       d="m 78.782327,71.642111 v 0"
       style="fill:none;stroke:#333333;stroke-width:0.377472;stroke-linecap:butt;stroke-linejoin:miter;stroke-miterlimit:10;stroke-dasharray:none;stroke-opacity:1" />
    <path
       id="path112"
       d="m 78.782327,66.766722 v 0"
       style="fill:none;stroke:#333333;stroke-width:0.377472;stroke-linecap:butt;stroke-linejoin:miter;stroke-miterlimit:10;stroke-dasharray:none;stroke-opacity:1" />
    <path
       id="path113"
       d="m 75.734327,78.348416 h 6.096 v -6.095999 h -6.096 z"
       style="fill:#ffffff;fill-opacity:1;fill-rule:nonzero;stroke:none;stroke-width:0.352778" />
    <path
       id="path114"
       d="M 78.782327,77.738111 V 76.824416"
       style="fill:none;stroke:#333333;stroke-width:0.377472;stroke-linecap:butt;stroke-linejoin:miter;stroke-miterlimit:10;stroke-dasharray:none;stroke-opacity:1" />
    <path
       id="path115"
       d="M 78.782327,73.776416 V 72.862722"
       style="fill:none;stroke:#333333;stroke-width:0.377472;stroke-linecap:butt;stroke-linejoin:miter;stroke-miterlimit:10;stroke-dasharray:none;stroke-opacity:1" />
    <path
       id="path116"
       d="m 76.496327,76.824416 h 4.572 v -3.048 h -4.572 z"
       style="fill:#b79f00;fill-opacity:1;fill-rule:nonzero;stroke:#333333;stroke-width:0.377472;stroke-linecap:butt;stroke-linejoin:miter;stroke-miterlimit:10;stroke-dasharray:none;stroke-opacity:1" />
    <path
       id="path117"
       d="m 76.496327,75.300416 h 4.572"
       style="fill:none;stroke:#333333;stroke-width:0.377472;stroke-linecap:butt;stroke-linejoin:miter;stroke-miterlimit:10;stroke-dasharray:none;stroke-opacity:1" />
    <path
       id="path118"
       d="m 78.782327,77.738111 v 0"
       style="fill:none;stroke:#333333;stroke-width:0.377472;stroke-linecap:butt;stroke-linejoin:miter;stroke-miterlimit:10;stroke-dasharray:none;stroke-opacity:1" />
    <path
       id="path119"
       d="m 78.782327,72.862722 v 0"
       style="fill:none;stroke:#333333;stroke-width:0.377472;stroke-linecap:butt;stroke-linejoin:miter;stroke-miterlimit:10;stroke-dasharray:none;stroke-opacity:1" />
    <path
       id="path120"
       d="m 75.734327,84.444416 h 6.096 v -6.096 h -6.096 z"
       style="fill:#ffffff;fill-opacity:1;fill-rule:nonzero;stroke:none;stroke-width:0.352778" />
    <path
       id="path121"
       d="M 78.782327,83.83411 V 82.920416"
       style="fill:none;stroke:#333333;stroke-width:0.377472;stroke-linecap:butt;stroke-linejoin:miter;stroke-miterlimit:10;stroke-dasharray:none;stroke-opacity:1" />
    <path
       id="path122"
       d="M 78.782327,79.872416 V 78.958722"
       style="fill:none;stroke:#333333;stroke-width:0.377472;stroke-linecap:butt;stroke-linejoin:miter;stroke-miterlimit:10;stroke-dasharray:none;stroke-opacity:1" />
    <path
       id="path123"
       d="m 76.496327,82.920416 h 4.572 v -3.048 h -4.572 z"
       style="fill:#00ba38;fill-opacity:1;fill-rule:nonzero;stroke:#333333;stroke-width:0.377472;stroke-linecap:butt;stroke-linejoin:miter;stroke-miterlimit:10;stroke-dasharray:none;stroke-opacity:1" />
    <path
       id="path124"
       d="m 76.496327,81.396416 h 4.572"
       style="fill:none;stroke:#333333;stroke-width:0.377472;stroke-linecap:butt;stroke-linejoin:miter;stroke-miterlimit:10;stroke-dasharray:none;stroke-opacity:1" />
    <path
       id="path125"
       d="m 78.782327,83.83411 v 0"
       style="fill:none;stroke:#333333;stroke-width:0.377472;stroke-linecap:butt;stroke-linejoin:miter;stroke-miterlimit:10;stroke-dasharray:none;stroke-opacity:1" />
    <path
       id="path126"
       d="m 78.782327,78.958722 v 0"
       style="fill:none;stroke:#333333;stroke-width:0.377472;stroke-linecap:butt;stroke-linejoin:miter;stroke-miterlimit:10;stroke-dasharray:none;stroke-opacity:1" />
    <path
       id="path127"
       d="m 75.734327,90.540416 h 6.096 v -6.096 h -6.096 z"
       style="fill:#ffffff;fill-opacity:1;fill-rule:nonzero;stroke:none;stroke-width:0.352778" />
    <path
       id="path128"
       d="M 78.782327,89.93011 V 89.016416"
       style="fill:none;stroke:#333333;stroke-width:0.377472;stroke-linecap:butt;stroke-linejoin:miter;stroke-miterlimit:10;stroke-dasharray:none;stroke-opacity:1" />
    <path
       id="path129"
       d="M 78.782327,85.968416 V 85.054721"
       style="fill:none;stroke:#333333;stroke-width:0.377472;stroke-linecap:butt;stroke-linejoin:miter;stroke-miterlimit:10;stroke-dasharray:none;stroke-opacity:1" />
    <path
       id="path130"
       d="m 76.496327,89.016416 h 4.572 v -3.048 h -4.572 z"
       style="fill:#00bfc4;fill-opacity:1;fill-rule:nonzero;stroke:#333333;stroke-width:0.377472;stroke-linecap:butt;stroke-linejoin:miter;stroke-miterlimit:10;stroke-dasharray:none;stroke-opacity:1" />
    <path
       id="path131"
       d="m 76.496327,87.492416 h 4.572"
       style="fill:none;stroke:#333333;stroke-width:0.377472;stroke-linecap:butt;stroke-linejoin:miter;stroke-miterlimit:10;stroke-dasharray:none;stroke-opacity:1" />
    <path
       id="path132"
       d="m 78.782327,89.93011 v 0"
       style="fill:none;stroke:#333333;stroke-width:0.377472;stroke-linecap:butt;stroke-linejoin:miter;stroke-miterlimit:10;stroke-dasharray:none;stroke-opacity:1" />
    <path
       id="path133"
       d="m 78.782327,85.054721 v 0"
       style="fill:none;stroke:#333333;stroke-width:0.377472;stroke-linecap:butt;stroke-linejoin:miter;stroke-miterlimit:10;stroke-dasharray:none;stroke-opacity:1" />
    <path
       id="path134"
       d="m 75.734327,96.636415 h 6.096 v -6.095999 h -6.096 z"
       style="fill:#ffffff;fill-opacity:1;fill-rule:nonzero;stroke:none;stroke-width:0.352778" />
    <path
       id="path135"
       d="M 78.782327,96.02611 V 95.112415"
       style="fill:none;stroke:#333333;stroke-width:0.377472;stroke-linecap:butt;stroke-linejoin:miter;stroke-miterlimit:10;stroke-dasharray:none;stroke-opacity:1" />
    <path
       id="path136"
       d="M 78.782327,92.064416 V 91.150721"
       style="fill:none;stroke:#333333;stroke-width:0.377472;stroke-linecap:butt;stroke-linejoin:miter;stroke-miterlimit:10;stroke-dasharray:none;stroke-opacity:1" />
    <path
       id="path137"
       d="m 76.496327,95.112415 h 4.572 v -3.047999 h -4.572 z"
       style="fill:#619cff;fill-opacity:1;fill-rule:nonzero;stroke:#333333;stroke-width:0.377472;stroke-linecap:butt;stroke-linejoin:miter;stroke-miterlimit:10;stroke-dasharray:none;stroke-opacity:1" />
    <path
       id="path138"
       d="m 76.496327,93.588415 h 4.572"
       style="fill:none;stroke:#333333;stroke-width:0.377472;stroke-linecap:butt;stroke-linejoin:miter;stroke-miterlimit:10;stroke-dasharray:none;stroke-opacity:1" />
    <path
       id="path139"
       d="m 78.782327,96.02611 v 0"
       style="fill:none;stroke:#333333;stroke-width:0.377472;stroke-linecap:butt;stroke-linejoin:miter;stroke-miterlimit:10;stroke-dasharray:none;stroke-opacity:1" />
    <path
       id="path140"
       d="m 78.782327,91.150721 v 0"
       style="fill:none;stroke:#333333;stroke-width:0.377472;stroke-linecap:butt;stroke-linejoin:miter;stroke-miterlimit:10;stroke-dasharray:none;stroke-opacity:1" />
    <path
       id="path141"
       d="m 75.734327,102.73242 h 6.096 v -6.096005 h -6.096 z"
       style="fill:#ffffff;fill-opacity:1;fill-rule:nonzero;stroke:none;stroke-width:0.352778" />
    <path
       id="path142"
       d="m 78.782327,102.12211 v -0.91369"
       style="fill:none;stroke:#333333;stroke-width:0.377472;stroke-linecap:butt;stroke-linejoin:miter;stroke-miterlimit:10;stroke-dasharray:none;stroke-opacity:1" />
    <path
       id="path143"
       d="M 78.782327,98.160415 V 97.246721"
       style="fill:none;stroke:#333333;stroke-width:0.377472;stroke-linecap:butt;stroke-linejoin:miter;stroke-miterlimit:10;stroke-dasharray:none;stroke-opacity:1" />
    <path
       id="path144"
       d="m 76.496327,101.20842 h 4.572 v -3.048005 h -4.572 z"
       style="fill:#f564e3;fill-opacity:1;fill-rule:nonzero;stroke:#333333;stroke-width:0.377472;stroke-linecap:butt;stroke-linejoin:miter;stroke-miterlimit:10;stroke-dasharray:none;stroke-opacity:1" />
    <path
       id="path145"
       d="m 76.496327,99.684415 h 4.572"
       style="fill:none;stroke:#333333;stroke-width:0.377472;stroke-linecap:butt;stroke-linejoin:miter;stroke-miterlimit:10;stroke-dasharray:none;stroke-opacity:1" />
    <path
       id="path146"
       d="m 78.782327,102.12211 v 0"
       style="fill:none;stroke:#333333;stroke-width:0.377472;stroke-linecap:butt;stroke-linejoin:miter;stroke-miterlimit:10;stroke-dasharray:none;stroke-opacity:1" />
    <path
       id="path147"
       d="m 78.782327,97.246721 v 0"
       style="fill:none;stroke:#333333;stroke-width:0.377472;stroke-linecap:butt;stroke-linejoin:miter;stroke-miterlimit:10;stroke-dasharray:none;stroke-opacity:1" />
    <path
       id="path148"
       d="m 83.994872,70.344297 v -2.273762 h 0.855762 c 0.173633,0 0.312126,0.02377 0.417546,0.07028 0.104386,0.04754 0.186035,0.118856 0.243912,0.214974 0.05994,0.09405 0.09095,0.19327 0.09095,0.297657 0,0.09715 -0.02687,0.188102 -0.07855,0.272851 -0.05271,0.08578 -0.132292,0.155029 -0.239779,0.206706 0.137459,0.04134 0.241846,0.111621 0.314193,0.21084 0.07441,0.09715 0.111621,0.21084 0.111621,0.343131 0,0.10542 -0.02274,0.204639 -0.06615,0.297656 -0.04444,0.09095 -0.09922,0.161231 -0.165364,0.21084 -0.06615,0.04961 -0.150896,0.08682 -0.252181,0.111621 -0.09922,0.02481 -0.221176,0.03721 -0.363803,0.03721 z m 0.301791,-1.318782 h 0.491959 c 0.132292,0 0.227377,-0.0083 0.285254,-0.02481 0.07648,-0.0217 0.134359,-0.05891 0.173633,-0.111621 0.03824,-0.05478 0.05788,-0.121956 0.05788,-0.202571 0,-0.07441 -0.0186,-0.14056 -0.05374,-0.198438 -0.03617,-0.05788 -0.08888,-0.09612 -0.157096,-0.115755 -0.06615,-0.0217 -0.180868,-0.03307 -0.343132,-0.03307 h -0.454752 z m 0,1.050065 h 0.566373 c 0.09612,0 0.163298,-0.0041 0.202572,-0.0124 0.07131,-0.01034 0.129191,-0.02997 0.173633,-0.05788 0.04651,-0.02997 0.08475,-0.07235 0.115755,-0.128158 0.02997,-0.05478 0.04547,-0.117822 0.04547,-0.190169 0,-0.08475 -0.02274,-0.159163 -0.06614,-0.223242 -0.04134,-0.06305 -0.101286,-0.107487 -0.177767,-0.132292 -0.07752,-0.0248 -0.189136,-0.03721 -0.334864,-0.03721 h -0.525032 z m 1.729093,-0.463021 0.28112,-0.0248 c 0.01344,0.115755 0.04547,0.209806 0.09508,0.281119 0.04961,0.07235 0.125057,0.131259 0.227376,0.177767 0.104386,0.04444 0.221175,0.06615 0.3514,0.06615 0.112654,0 0.212906,-0.01654 0.30179,-0.04961 0.08785,-0.03514 0.152962,-0.08268 0.194303,-0.14056 0.04341,-0.05994 0.06615,-0.125057 0.06615,-0.194303 0,-0.07131 -0.02067,-0.133326 -0.06201,-0.186036 -0.04134,-0.05478 -0.109554,-0.100252 -0.202571,-0.136426 -0.06408,-0.0248 -0.200505,-0.06201 -0.409277,-0.111621 -0.206706,-0.04961 -0.3514,-0.09612 -0.434083,-0.14056 -0.110587,-0.05788 -0.192236,-0.128157 -0.243912,-0.210839 -0.05271,-0.08475 -0.07855,-0.179834 -0.07855,-0.285254 0,-0.112655 0.03101,-0.219108 0.09508,-0.318327 0.06615,-0.101286 0.161231,-0.177767 0.285254,-0.227376 0.126091,-0.05168 0.265617,-0.07855 0.417546,-0.07855 0.167431,0 0.316259,0.02791 0.446484,0.08268 0.129191,0.05271 0.22841,0.132291 0.297656,0.239778 0.06821,0.10542 0.10542,0.223243 0.111621,0.355534 l -0.289388,0.02067 c -0.01654,-0.142627 -0.07028,-0.250114 -0.16123,-0.322461 -0.08888,-0.07441 -0.219108,-0.111621 -0.392741,-0.111621 -0.181901,0 -0.314193,0.03307 -0.396875,0.09922 -0.08268,0.06614 -0.124023,0.146761 -0.124023,0.239778 0,0.08268 0.02894,0.150895 0.08682,0.202572 0.05788,0.05271 0.207739,0.106453 0.450618,0.16123 0.244947,0.05581 0.413412,0.103353 0.504362,0.144694 0.132292,0.06408 0.229444,0.142627 0.293523,0.235645 0.06305,0.09095 0.09508,0.198437 0.09508,0.322461 0,0.121956 -0.03514,0.235644 -0.103353,0.343131 -0.06925,0.10542 -0.168465,0.188102 -0.297656,0.248047 -0.130225,0.05788 -0.275952,0.08682 -0.438216,0.08682 -0.206706,0 -0.380339,-0.02894 -0.520898,-0.08682 -0.138493,-0.05994 -0.247014,-0.150895 -0.326596,-0.272852 -0.07751,-0.120922 -0.117822,-0.257348 -0.119889,-0.409277 z m 2.233456,0.731738 v -2.273762 h 1.533756 v 0.268717 h -1.231966 v 0.702799 h 1.066601 v 0.268718 h -1.066601 v 1.033528 z m 0,0"
       style="fill:#000000;fill-opacity:1;fill-rule:nonzero;stroke:none;stroke-width:0.352778"
       aria-label="BSF" />
    <path
       id="path149"
       d="m 85.631982,75.642164 0.297656,0.07855 c -0.06408,0.24598 -0.176733,0.433049 -0.338997,0.56224 -0.163298,0.130225 -0.362769,0.194303 -0.599447,0.194303 -0.24598,0 -0.445451,-0.04961 -0.599447,-0.148828 -0.155029,-0.09922 -0.271818,-0.241845 -0.351399,-0.429948 -0.08061,-0.190169 -0.11989,-0.393774 -0.11989,-0.611849 0,-0.236678 0.04548,-0.443383 0.136426,-0.620117 0.09095,-0.1757 0.219108,-0.310058 0.384473,-0.401009 0.167431,-0.09095 0.352433,-0.136426 0.553971,-0.136426 0.225309,0 0.415479,0.05788 0.570508,0.173633 0.157096,0.115755 0.265617,0.279053 0.326595,0.487826 l -0.297656,0.07028 c -0.05271,-0.165365 -0.130225,-0.285254 -0.231511,-0.359668 -0.09922,-0.07648 -0.225309,-0.115755 -0.376204,-0.115755 -0.173633,0 -0.320394,0.04341 -0.438216,0.128157 -0.115755,0.08268 -0.198438,0.194303 -0.248047,0.334863 -0.04754,0.14056 -0.07028,0.287321 -0.07028,0.438216 0,0.19327 0.02687,0.361735 0.08268,0.504362 0.05788,0.143661 0.145728,0.251148 0.264584,0.322461 0.117822,0.07235 0.248046,0.107487 0.388606,0.107487 0.167432,0 0.310059,-0.04754 0.425814,-0.144694 0.117822,-0.09612 0.198438,-0.240812 0.239779,-0.434082 z m 0,0"
       style="fill:#000000;fill-opacity:1;fill-rule:nonzero;stroke:none;stroke-width:0.352778"
       aria-label="C" />
    <path
       id="path150"
       d="m 85.631982,81.737916 0.297656,0.07855 c -0.06408,0.24598 -0.176733,0.433049 -0.338997,0.56224 -0.163298,0.130225 -0.362769,0.194303 -0.599447,0.194303 -0.24598,0 -0.445451,-0.04961 -0.599447,-0.148828 -0.155029,-0.09922 -0.271818,-0.241845 -0.351399,-0.429948 -0.08061,-0.190169 -0.11989,-0.393774 -0.11989,-0.611849 0,-0.236678 0.04548,-0.443383 0.136426,-0.620117 0.09095,-0.1757 0.219108,-0.310058 0.384473,-0.401009 0.167431,-0.09095 0.352433,-0.136426 0.553971,-0.136426 0.225309,0 0.415479,0.05788 0.570508,0.173633 0.157096,0.115755 0.265617,0.279053 0.326595,0.487826 l -0.297656,0.07028 c -0.05271,-0.165365 -0.130225,-0.285254 -0.231511,-0.359668 -0.09922,-0.07648 -0.225309,-0.115756 -0.376204,-0.115756 -0.173633,0 -0.320394,0.04341 -0.438216,0.128158 -0.115755,0.08268 -0.198438,0.194303 -0.248047,0.334863 -0.04754,0.14056 -0.07028,0.287321 -0.07028,0.438216 0,0.19327 0.02687,0.361735 0.08268,0.504362 0.05788,0.143661 0.145728,0.251148 0.264584,0.322461 0.117822,0.07235 0.248046,0.107487 0.388606,0.107487 0.167432,0 0.310059,-0.04754 0.425814,-0.144694 0.117822,-0.09612 0.198438,-0.240812 0.239779,-0.434082 z M 86.312044,82.5358 V 80.262037 H 86.6097 v 0.93431 h 1.182357 v -0.93431 h 0.30179 V 82.5358 h -0.30179 V 81.465065 H 86.6097 V 82.5358 Z m 2.85874,0 v -2.005045 h -0.748275 v -0.268718 h 1.802474 v 0.268718 H 89.472574 V 82.5358 Z m 0,0"
       style="fill:#000000;fill-opacity:1;fill-rule:nonzero;stroke:none;stroke-width:0.352778"
       aria-label="CHT" />
    <path
       id="path151"
       d="m 84.019677,88.631552 v -2.273763 h 0.297656 v 0.93431 h 1.182357 v -0.93431 h 0.30179 v 2.273763 h -0.30179 v -1.070735 h -1.182357 v 1.070735 z m 3.904671,-0.797884 0.297656,0.07855 c -0.06408,0.24598 -0.176733,0.433049 -0.338997,0.56224 -0.163297,0.130225 -0.362769,0.194303 -0.599447,0.194303 -0.245979,0 -0.44545,-0.04961 -0.599446,-0.148828 -0.155029,-0.09922 -0.271818,-0.241845 -0.3514,-0.429948 -0.08061,-0.190169 -0.119889,-0.393774 -0.119889,-0.611849 0,-0.236678 0.04548,-0.443383 0.136426,-0.620117 0.09095,-0.1757 0.219108,-0.310058 0.384472,-0.401009 0.167432,-0.09095 0.352433,-0.136426 0.553972,-0.136426 0.225309,0 0.415478,0.05788 0.570507,0.173633 0.157097,0.115755 0.265617,0.279053 0.326595,0.487826 l -0.297656,0.07028 c -0.05271,-0.165365 -0.130224,-0.285254 -0.23151,-0.359668 -0.09922,-0.07648 -0.22531,-0.115756 -0.376205,-0.115756 -0.173632,0 -0.320394,0.04341 -0.438216,0.128158 -0.115755,0.08268 -0.198437,0.194303 -0.248047,0.334863 -0.04754,0.14056 -0.07028,0.287321 -0.07028,0.438216 0,0.19327 0.02687,0.361735 0.08268,0.504362 0.05788,0.143661 0.145727,0.251148 0.264583,0.322461 0.117822,0.07235 0.248047,0.107487 0.388607,0.107487 0.167432,0 0.310059,-0.04754 0.425814,-0.144694 0.117822,-0.09612 0.198437,-0.240812 0.239778,-0.434082 z m 0,0"
       style="fill:#000000;fill-opacity:1;fill-rule:nonzero;stroke:none;stroke-width:0.352778"
       aria-label="HC" />
    <path
       id="path152"
       d="m 83.999007,94.728338 v -2.273763 h 0.454752 l 0.537435,1.60817 c 0.04961,0.151929 0.08475,0.264584 0.107487,0.338998 0.02481,-0.08268 0.06408,-0.203605 0.119889,-0.363802 l 0.545703,-1.583366 h 0.405144 v 2.273763 h -0.289388 v -1.901693 l -0.661459,1.901693 h -0.272851 l -0.657324,-1.934766 v 1.934766 z m 3.049942,0 -0.60358,-2.273763 h 0.310058 l 0.347266,1.492415 c 0.03514,0.155029 0.06718,0.309025 0.09508,0.463021 0.05788,-0.241846 0.09198,-0.382406 0.103352,-0.42168 l 0.429948,-1.533756 h 0.363802 l 0.326596,1.149284 c 0.07958,0.287321 0.138492,0.556038 0.177766,0.806152 0.02687,-0.142627 0.06408,-0.307992 0.111621,-0.496094 l 0.355534,-1.459342 h 0.30179 l -0.620116,2.273763 H 88.454543 L 87.97912,92.996144 c -0.04134,-0.142627 -0.06615,-0.231511 -0.07441,-0.264583 -0.02274,0.102319 -0.04444,0.190169 -0.06615,0.264583 l -0.479557,1.732194 z m 0,0"
       style="fill:#000000;fill-opacity:1;fill-rule:nonzero;stroke:none;stroke-width:0.352778"
       aria-label="MW" />
    <path
       id="path153"
       d="m 83.916324,99.716144 c 0,-0.377238 0.100253,-0.671794 0.301791,-0.8847 0.203605,-0.214974 0.465088,-0.322461 0.785481,-0.322461 0.211874,0 0.402043,0.05168 0.570508,0.152962 0.167432,0.09922 0.295589,0.238745 0.384473,0.417545 0.08785,0.179834 0.132291,0.38344 0.132291,0.611849 0,0.229444 -0.04754,0.434081 -0.140559,0.615981 -0.09405,0.1819 -0.226343,0.3204 -0.396875,0.41341 -0.168466,0.094 -0.3514,0.14056 -0.549838,0.14056 -0.214974,0 -0.40721,-0.0506 -0.574642,-0.15296 -0.168465,-0.10438 -0.296622,-0.24494 -0.384472,-0.42168 -0.08578,-0.1788 -0.128158,-0.368968 -0.128158,-0.570506 z m 0.310059,0.0041 c 0,0.275952 0.07235,0.491966 0.219108,0.649056 0.148828,0.1571 0.334863,0.23565 0.558105,0.23565 0.22531,0 0.411345,-0.0785 0.558106,-0.23565 0.145727,-0.15916 0.219108,-0.38654 0.219108,-0.682129 0,-0.183968 -0.03204,-0.345198 -0.09508,-0.483691 -0.06098,-0.137459 -0.151928,-0.243913 -0.272851,-0.318327 -0.121957,-0.07648 -0.256315,-0.115755 -0.405143,-0.115755 -0.212907,0 -0.395842,0.07338 -0.549838,0.219108 -0.155029,0.146761 -0.23151,0.390674 -0.23151,0.731738 z m 2.267562,1.103816 v -2.27377 h 1.533756 v 0.268717 h -1.231966 v 0.7028 h 1.066602 v 0.268717 h -1.066602 v 1.033536 z m 0,0"
       style="fill:#000000;fill-opacity:1;fill-rule:nonzero;stroke:none;stroke-width:0.352778"
       aria-label="OF" />
    <path
       id="path154"
       d="m -42.761215,13.429942 v -3.282487 h 2.215886 v 0.388607 h -1.781804 v 1.016992 h 1.542025 v 0.384473 h -1.542025 v 1.492415 z m 2.731617,-2.819466 v -0.463021 h 0.401009 v 0.463021 z m 0,2.819466 v -2.377116 h 0.401009 v 2.377116 z m 0.852661,-0.711068 0.401009,-0.06201 c 0.0217,0.160197 0.08372,0.283187 0.186035,0.367937 0.101286,0.08578 0.243912,0.128157 0.425814,0.128157 0.187068,0 0.324528,-0.03721 0.413411,-0.111621 0.09095,-0.07648 0.136426,-0.166398 0.136426,-0.268717 0,-0.09095 -0.04031,-0.162264 -0.11989,-0.214974 -0.05581,-0.03514 -0.193269,-0.08062 -0.413411,-0.136426 -0.295589,-0.07441 -0.500228,-0.137459 -0.615983,-0.190169 -0.113688,-0.05478 -0.200505,-0.130225 -0.260449,-0.227377 -0.05788,-0.09612 -0.08682,-0.202571 -0.08682,-0.318326 0,-0.107487 0.0248,-0.204639 0.07441,-0.293523 0.04961,-0.09095 0.115756,-0.166398 0.198438,-0.227376 0.06305,-0.04651 0.148828,-0.08475 0.256315,-0.115755 0.107487,-0.03307 0.223242,-0.04961 0.347266,-0.04961 0.187068,0 0.351399,0.0279 0.491959,0.08268 0.14056,0.05271 0.243913,0.12609 0.310059,0.219108 0.06821,0.09095 0.115755,0.212907 0.14056,0.363802 l -0.392741,0.05374 c -0.01964,-0.120922 -0.07235,-0.216007 -0.157096,-0.285253 -0.08578,-0.06821 -0.206706,-0.103353 -0.363802,-0.103353 -0.185002,0 -0.317294,0.03101 -0.396875,0.09095 -0.07752,0.06098 -0.115756,0.132292 -0.115756,0.214974 0,0.05271 0.01447,0.09922 0.04548,0.14056 0.03307,0.04444 0.08475,0.08061 0.157096,0.107487 0.03824,0.01654 0.157096,0.05168 0.355534,0.103353 0.283187,0.07752 0.481624,0.14056 0.595312,0.190169 0.112655,0.04754 0.200505,0.117822 0.264584,0.21084 0.06614,0.09095 0.09922,0.205672 0.09922,0.343132 0,0.135392 -0.04031,0.262516 -0.119889,0.380338 -0.07751,0.118856 -0.190169,0.21084 -0.338997,0.276986 -0.146762,0.06305 -0.313159,0.09508 -0.500228,0.09508 -0.309025,0 -0.54467,-0.06304 -0.706934,-0.190169 -0.163297,-0.129191 -0.26665,-0.320394 -0.310058,-0.574642 z m 2.45463,0.711068 v -3.282487 h 0.405143 v 1.178223 c 0.187069,-0.217041 0.423747,-0.326595 0.711068,-0.326595 0.1757,0 0.328662,0.03514 0.458887,0.103352 0.129191,0.06925 0.221175,0.165365 0.276985,0.289388 0.05788,0.121957 0.08682,0.299724 0.08682,0.533301 v 1.504818 h -0.405143 v -1.504818 c 0,-0.203605 -0.04444,-0.3514 -0.132292,-0.44235 -0.08578,-0.09095 -0.208773,-0.136426 -0.367936,-0.136426 -0.121957,0 -0.234611,0.03204 -0.338998,0.09508 -0.10542,0.06098 -0.179834,0.144694 -0.223242,0.252181 -0.04444,0.10542 -0.06615,0.250114 -0.06615,0.434082 v 1.302246 z m 4.178556,-0.764811 0.413412,0.04961 c -0.06408,0.24598 -0.185002,0.436149 -0.363802,0.570508 -0.176734,0.132291 -0.403077,0.198437 -0.677995,0.198437 -0.350366,0 -0.627352,-0.10542 -0.830957,-0.318326 -0.201538,-0.214974 -0.30179,-0.516765 -0.30179,-0.905372 0,-0.398942 0.101285,-0.709 0.305924,-0.930175 0.206706,-0.220142 0.473356,-0.330729 0.802018,-0.330729 0.31936,0 0.57981,0.109554 0.781348,0.326595 0.200504,0.214974 0.30179,0.518831 0.30179,0.909505 0,0.0248 -0.0021,0.06098 -0.0041,0.107487 h -1.773534 c 0.01653,0.262516 0.09095,0.463021 0.223242,0.60358 0.132291,0.138493 0.297656,0.206706 0.496093,0.206706 0.148829,0 0.274919,-0.03824 0.380339,-0.115755 0.104387,-0.07648 0.187069,-0.200505 0.248047,-0.37207 z m -1.322916,-0.65319 h 1.32705 c -0.01964,-0.198438 -0.07028,-0.3483 -0.152962,-0.450619 -0.130225,-0.153996 -0.296623,-0.23151 -0.500228,-0.23151 -0.185002,0 -0.341064,0.06201 -0.467155,0.186035 -0.124023,0.124023 -0.19327,0.289388 -0.206705,0.496094 z m 2.239656,1.418001 v -2.377116 h 0.363802 v 0.359668 c 0.09095,-0.167432 0.174666,-0.278019 0.252181,-0.330729 0.07958,-0.05478 0.166398,-0.08268 0.260449,-0.08268 0.137459,0 0.274919,0.04341 0.413412,0.128157 l -0.136426,0.376205 c -0.09922,-0.05788 -0.198438,-0.08682 -0.297656,-0.08682 -0.08888,0 -0.167432,0.02687 -0.235645,0.07855 -0.06925,0.05271 -0.118856,0.126091 -0.148828,0.219108 -0.04754,0.143661 -0.07028,0.300757 -0.07028,0.471289 v 1.244369 z m 4.348055,0 v -0.301791 c -0.148828,0.237712 -0.371037,0.355534 -0.665593,0.355534 -0.188102,0 -0.361735,-0.05271 -0.520898,-0.157096 -0.160197,-0.104386 -0.28422,-0.250114 -0.37207,-0.438216 -0.08578,-0.187069 -0.128158,-0.402043 -0.128158,-0.644922 0,-0.236678 0.03824,-0.451652 0.115755,-0.644922 0.07958,-0.192236 0.198438,-0.340031 0.355534,-0.44235 0.159163,-0.104386 0.336931,-0.157096 0.533301,-0.157096 0.142627,0 0.269751,0.03101 0.380338,0.09095 0.112655,0.06098 0.204639,0.139526 0.276986,0.235645 v -1.178223 h 0.401009 v 3.282487 z m -1.273307,-1.186491 c 0,0.303857 0.06304,0.531234 0.190169,0.682129 0.129191,0.151929 0.282153,0.227376 0.458887,0.227376 0.173632,0 0.32246,-0.07131 0.446484,-0.214974 0.124023,-0.145727 0.186035,-0.365869 0.186035,-0.661458 0,-0.324528 -0.06408,-0.563273 -0.190169,-0.715202 -0.124024,-0.150895 -0.279053,-0.227376 -0.463021,-0.227376 -0.179834,0 -0.329696,0.07338 -0.450619,0.219108 -0.118855,0.146761 -0.177766,0.376204 -0.177766,0.690397 z m 2.285131,-1.632975 v -0.463021 h 0.401009 v 0.463021 z m 0,2.819466 v -2.377116 h 0.401009 v 2.377116 z m 1.67535,0 -0.905371,-2.377116 h 0.425814 l 0.508496,1.422135 c 0.05478,0.15503 0.10542,0.314193 0.152962,0.479558 0.03514,-0.124024 0.08682,-0.273885 0.152962,-0.450619 l 0.525033,-1.451074 h 0.417545 l -0.901236,2.377116 z m 3.146061,-0.764811 0.413411,0.04961 c -0.06408,0.24598 -0.185001,0.436149 -0.363802,0.570508 -0.176733,0.132291 -0.403076,0.198437 -0.677994,0.198437 -0.350367,0 -0.627352,-0.10542 -0.830957,-0.318326 -0.201538,-0.214974 -0.301791,-0.516765 -0.301791,-0.905372 0,-0.398942 0.101286,-0.709 0.305925,-0.930175 0.206706,-0.220142 0.473356,-0.330729 0.802018,-0.330729 0.31936,0 0.57981,0.109554 0.781348,0.326595 0.200504,0.214974 0.30179,0.518831 0.30179,0.909505 0,0.0248 -0.0021,0.06098 -0.0041,0.107487 h -1.773535 c 0.01654,0.262516 0.09095,0.463021 0.223242,0.60358 0.132292,0.138493 0.297656,0.206706 0.496094,0.206706 0.148828,0 0.274919,-0.03824 0.380338,-0.115755 0.104387,-0.07648 0.187069,-0.200505 0.248047,-0.37207 z m -1.322917,-0.65319 h 1.327051 c -0.01964,-0.198438 -0.07028,-0.3483 -0.152962,-0.450619 -0.130224,-0.153996 -0.296623,-0.23151 -0.500228,-0.23151 -0.185001,0 -0.341064,0.06201 -0.467155,0.186035 -0.124023,0.124023 -0.19327,0.289388 -0.206706,0.496094 z m 2.239657,1.418001 v -2.377116 h 0.363802 v 0.359668 c 0.09095,-0.167432 0.174666,-0.278019 0.252181,-0.330729 0.07958,-0.05478 0.166398,-0.08268 0.260449,-0.08268 0.13746,0 0.274919,0.04341 0.413412,0.128157 l -0.136426,0.376205 c -0.09922,-0.05788 -0.198438,-0.08682 -0.297656,-0.08682 -0.08888,0 -0.167432,0.02687 -0.235645,0.07855 -0.06925,0.05271 -0.118855,0.126091 -0.148828,0.219108 -0.04754,0.143661 -0.07028,0.300757 -0.07028,0.471289 v 1.244369 z m 1.370459,-0.711068 0.401009,-0.06201 c 0.0217,0.160197 0.08372,0.283187 0.186035,0.367937 0.101286,0.08578 0.243913,0.128157 0.425814,0.128157 0.187069,0 0.324528,-0.03721 0.413412,-0.111621 0.09095,-0.07648 0.136425,-0.166398 0.136425,-0.268717 0,-0.09095 -0.04031,-0.162264 -0.119889,-0.214974 -0.05581,-0.03514 -0.19327,-0.08062 -0.413411,-0.136426 -0.29559,-0.07441 -0.500228,-0.137459 -0.615984,-0.190169 -0.113688,-0.05478 -0.200504,-0.130225 -0.260449,-0.227377 -0.05788,-0.09612 -0.08682,-0.202571 -0.08682,-0.318326 0,-0.107487 0.0248,-0.204639 0.07441,-0.293523 0.04961,-0.09095 0.115755,-0.166398 0.198437,-0.227376 0.06304,-0.04651 0.148828,-0.08475 0.256315,-0.115755 0.107487,-0.03307 0.223242,-0.04961 0.347266,-0.04961 0.187069,0 0.3514,0.0279 0.49196,0.08268 0.14056,0.05271 0.243912,0.12609 0.310058,0.219108 0.06821,0.09095 0.115755,0.212907 0.14056,0.363802 l -0.392741,0.05374 c -0.01964,-0.120922 -0.07235,-0.216007 -0.157096,-0.285253 -0.08578,-0.06821 -0.206706,-0.103353 -0.363802,-0.103353 -0.185002,0 -0.317293,0.03101 -0.396875,0.09095 -0.07751,0.06098 -0.115755,0.132292 -0.115755,0.214974 0,0.05271 0.01447,0.09922 0.04547,0.14056 0.03307,0.04444 0.08475,0.08061 0.157096,0.107487 0.03824,0.01654 0.157096,0.05168 0.355534,0.103353 0.283187,0.07752 0.481625,0.14056 0.595312,0.190169 0.112655,0.04754 0.200505,0.117822 0.264584,0.21084 0.06615,0.09095 0.09922,0.205672 0.09922,0.343132 0,0.135392 -0.04031,0.262516 -0.11989,0.380338 -0.07751,0.118856 -0.190169,0.21084 -0.338997,0.276986 -0.146761,0.06305 -0.313159,0.09508 -0.500228,0.09508 -0.309025,0 -0.544669,-0.06304 -0.706933,-0.190169 -0.163298,-0.129191 -0.266651,-0.320394 -0.310059,-0.574642 z m 2.458764,-2.108398 v -0.463021 h 0.40101 v 0.463021 z m 0,2.819466 v -2.377116 h 0.40101 v 2.377116 z m 1.894459,-0.359668 0.05788,0.355534 c -0.113688,0.0248 -0.214974,0.03721 -0.305924,0.03721 -0.146762,0 -0.259416,-0.02377 -0.338998,-0.07028 -0.08061,-0.04651 -0.136426,-0.107487 -0.169499,-0.181901 -0.03307,-0.07648 -0.04961,-0.235645 -0.04961,-0.475423 v -1.368392 h -0.297656 v -0.314193 h 0.297656 v -0.587044 l 0.401009,-0.243913 v 0.830957 h 0.405144 v 0.314193 h -0.405144 v 1.389062 c 0,0.115755 0.0062,0.190169 0.02067,0.223242 0.01344,0.03307 0.03514,0.05994 0.06615,0.07855 0.03307,0.01964 0.07958,0.02894 0.14056,0.02894 0.04341,0 0.103353,-0.0052 0.177767,-0.01654 z m 0.377237,1.273307 -0.04547,-0.376204 c 0.08785,0.0248 0.165365,0.03721 0.23151,0.03721 0.08785,0 0.15813,-0.0155 0.21084,-0.04548 0.05478,-0.03101 0.100253,-0.07338 0.136426,-0.128157 0.0248,-0.03927 0.06408,-0.138493 0.119889,-0.297656 0.0083,-0.02274 0.02067,-0.05581 0.03721,-0.09922 l -0.901238,-2.38125 h 0.434083 l 0.496093,1.37666 c 0.06305,0.173633 0.11989,0.357601 0.169499,0.549837 0.04651,-0.183968 0.101286,-0.364835 0.165365,-0.541569 l 0.508496,-1.384928 h 0.405143 l -0.905371,2.418457 c -0.09715,0.261483 -0.1726,0.440283 -0.227377,0.537435 -0.07235,0.132291 -0.155029,0.22841 -0.248046,0.289388 -0.09095,0.06304 -0.200505,0.09508 -0.326595,0.09508 -0.08062,0 -0.167432,-0.01654 -0.26045,-0.04961 z m 3.589445,-3.733105 v -0.463021 h 0.401009 v 0.463021 z m 0,2.819466 v -2.377116 h 0.401009 v 2.377116 z m 1.0138918,0 v -2.377116 h 0.3638021 v 0.338997 c 0.1736326,-0.261482 0.4258137,-0.39274 0.7565428,-0.39274 0.142627,0 0.273885,0.02687 0.3927408,0.07855 0.120923,0.04961 0.2108397,0.117822 0.2687175,0.202571 0.059945,0.08268 0.103353,0.181901 0.1281575,0.297657 0.013437,0.07441 0.020669,0.204638 0.020669,0.388606 v 1.463477 H -8.295103 v -1.44694 c 0,-0.162264 -0.016535,-0.283187 -0.049609,-0.363802 -0.031006,-0.08268 -0.085783,-0.148828 -0.1653646,-0.198438 -0.080615,-0.04961 -0.1736326,-0.07441 -0.2811198,-0.07441 -0.1715657,0 -0.3183269,0.05581 -0.4423501,0.165365 -0.1240236,0.107487 -0.1860353,0.314192 -0.1860353,0.620117 v 1.298112 z m 4.0917384,0 v -0.301791 c -0.1488264,0.237712 -0.371034,0.355534 -0.6655929,0.355534 -0.1881011,0 -0.3617348,-0.05271 -0.5208975,-0.157096 -0.1601964,-0.104386 -0.2842189,-0.250114 -0.3720712,-0.438216 -0.085781,-0.187069 -0.1281571,-0.402043 -0.1281571,-0.644922 0,-0.236678 0.038241,-0.451652 0.115757,-0.644922 0.07958,-0.192236 0.1984375,-0.340031 0.3555329,-0.44235 0.1591628,-0.104386 0.336931,-0.157096 0.5333012,-0.157096 0.1426281,0 0.2697515,0.03101 0.3803368,0.09095 0.112656,0.06098 0.2046393,0.139526 0.276987,0.235645 v -1.178223 h 0.4010095 v 3.282487 z m -1.2733055,-1.186491 c 0,0.303857 0.063045,0.531234 0.1901684,0.682129 0.1291907,0.151929 0.2821552,0.227376 0.4588862,0.227376 0.1736337,0 0.3224601,-0.07131 0.4464862,-0.214974 0.1240225,-0.145727 0.1860338,-0.365869 0.1860338,-0.661458 0,-0.324528 -0.064079,-0.563273 -0.1901684,-0.715202 -0.1240225,-0.150895 -0.2790543,-0.227376 -0.4630208,-0.227376 -0.1798355,0 -0.3296955,0.07338 -0.4506207,0.219108 -0.1188543,0.146761 -0.1777647,0.376204 -0.1777647,0.690397 z m 3.9098394,0.42168 0.4134097,0.04961 c -0.064078,0.24598 -0.1850002,0.436149 -0.363802,0.570508 -0.1767346,0.132291 -0.4030769,0.198437 -0.677993,0.198437 -0.3503683,0 -0.6273518,-0.10542 -0.8309575,-0.318326 -0.2015384,-0.214974 -0.3017908,-0.516765 -0.3017908,-0.905372 0,-0.398942 0.1012861,-0.709 0.3059254,-0.930175 0.2067031,-0.220142 0.4733537,-0.330729 0.8020155,-0.330729 0.3193627,0 0.5798114,0.109554 0.7813499,0.326595 0.2005047,0.214974 0.3017907,0.518831 0.3017907,0.909505 0,0.0248 -0.00212,0.06098 -0.00413,0.107487 h -1.7735372 c 0.016545,0.262516 0.090953,0.463021 0.2232448,0.60358 0.1322917,0.138493 0.2976562,0.206706 0.4960937,0.206706 0.1488264,0 0.2749162,-0.03824 0.3803368,-0.115755 0.1043869,-0.07648 0.1870674,-0.200505 0.2480486,-0.37207 z m -1.3229166,-0.65319 h 1.3270512 c -0.01965,-0.198438 -0.07028,-0.3483 -0.1529644,-0.450619 -0.1302244,-0.153996 -0.2966226,-0.23151 -0.5002283,-0.23151 -0.1850002,0 -0.341062,0.06201 -0.4671554,0.186035 -0.1240225,0.124023 -0.1932693,0.289388 -0.2067031,0.496094 z m 1.8376123,1.418001 0.8681649,-1.2361 -0.802019,-1.141016 h 0.5043628 l 0.3638021,0.558105 c 0.068213,0.10542 0.1240225,0.19327 0.1653646,0.264584 0.066146,-0.09922 0.1260898,-0.186035 0.1818992,-0.260449 l 0.40100955,-0.56224 h 0.47955904 l -0.82268829,1.120345 0.88469956,1.256771 h -0.49195917 l -0.48782819,-0.740007 -0.1322916,-0.198437 -0.6242508,0.938444 z m 4.0535012,-0.764811 0.4134096,0.04961 c -0.064078,0.24598 -0.1850001,0.436149 -0.363802,0.570508 -0.1767346,0.132291 -0.4030768,0.198437 -0.67799301,0.198437 -0.35036829,0 -0.62735527,-0.10542 -0.83095743,-0.318326 -0.20153841,-0.214974 -0.30179079,-0.516765 -0.30179079,-0.905372 0,-0.398942 0.10128602,-0.709 0.30592534,-0.930175 0.20670308,-0.220142 0.47335367,-0.330729 0.80201555,-0.330729 0.31936264,0 0.57981144,0.109554 0.78134984,0.326595 0.2005047,0.214974 0.3017908,0.518831 0.3017908,0.909505 0,0.0248 -0.00212,0.06098 -0.00413,0.107487 H 0.1240271 c 0.0165453,0.262516 0.0909532,0.463021 0.22324482,0.60358 0.13229166,0.138493 0.29765623,0.206706 0.49609372,0.206706 0.14882636,0 0.27491616,-0.03824 0.38033676,-0.115755 0.1043869,-0.07648 0.1870675,-0.200505 0.2480486,-0.37207 z M 0.14882737,12.011941 H 1.475875 c -0.01965,-0.198438 -0.070277,-0.3483 -0.1529609,-0.450619 -0.1302244,-0.153996 -0.2966226,-0.23151 -0.50022829,-0.23151 -0.18500018,0 -0.34106554,0.06201 -0.46715536,0.186035 -0.12402255,0.124023 -0.1932693,0.289388 -0.20670308,0.496094 z m 2.08256003,0.706933 0.401006,-0.06201 c 0.021696,0.160197 0.083718,0.283187 0.1860373,0.367937 0.1012861,0.08578 0.2439106,0.128157 0.4258134,0.128157 0.1870674,0 0.3245273,-0.03721 0.4134097,-0.111621 0.090953,-0.07648 0.1364262,-0.166398 0.1364262,-0.268717 0,-0.09095 -0.040308,-0.162264 -0.119888,-0.214974 C 3.618382,12.522506 3.4809227,12.477026 3.2607788,12.42122 2.9651898,12.34681 2.760554,12.283761 2.6447971,12.231051 2.5311074,12.176271 2.4442923,12.100826 2.3843483,12.003674 c -0.057877,-0.09612 -0.086815,-0.202571 -0.086815,-0.318326 0,-0.107487 0.0248,-0.204639 0.074411,-0.293523 0.049611,-0.09095 0.115757,-0.166398 0.1984375,-0.227376 0.063045,-0.04651 0.1488299,-0.08475 0.2563178,-0.115755 0.1074843,-0.03307 0.2232412,-0.04961 0.3472638,-0.04961 0.1870675,0 0.3513984,0.0279 0.4919592,0.08268 0.1405607,0.05271 0.243914,0.12609 0.3100599,0.219108 0.068213,0.09095 0.1157534,0.212907 0.1405607,0.363802 l -0.3927439,0.05374 c -0.01965,-0.120922 -0.072344,-0.216007 -0.1570955,-0.285253 -0.085781,-0.06821 -0.2067066,-0.103353 -0.363802,-0.103353 -0.1850002,0 -0.3172919,0.03101 -0.396875,0.09095 -0.077516,0.06098 -0.1157535,0.132292 -0.1157535,0.214974 0,0.05271 0.014464,0.09922 0.045473,0.14056 0.033055,0.04444 0.084751,0.08061 0.157099,0.107487 0.038238,0.01654 0.1570954,0.05168 0.3555329,0.103353 0.2831853,0.07752 0.4816228,0.14056 0.5953125,0.190169 0.1126525,0.04754 0.2005048,0.117822 0.2645833,0.21084 0.066146,0.09095 0.099219,0.205672 0.099219,0.343132 0,0.135392 -0.040308,0.262516 -0.1198916,0.380338 -0.077512,0.118856 -0.1901683,0.21084 -0.3389947,0.276986 -0.1467626,0.06305 -0.3131608,0.09508 -0.5002283,0.09508 -0.3090262,0 -0.5446712,-0.06304 -0.7069348,-0.190169 C 2.3781465,13.164325 2.2747932,12.973122 2.2313874,12.718874 Z m 0,0"
       style="fill:#000000;fill-opacity:1;fill-rule:nonzero;stroke:none;stroke-width:0.352778"
       aria-label="Fisher diversity indexes" />
  </g>
</svg>
